<?xml version="1.0" encoding="UTF-8"?>
<svg version="1.1" viewBox="0 0 1600 1600" width="1280" height="1280" xmlns="http://www.w3.org/2000/svg">
<path transform="translate(0)" d="m0 0h1600v1600h-1600v-1600z" fill="#FBFEFE"/>
<path transform="translate(519,378)" d="m0 0c1.7 0.329 3.39 0.743 5.06 1.19 4.24 1.11 8.48 2.18 12.7 3.2 22.4 5.43 43.8 14.1 63.2 26.6 0.66 0.33 1.32 0.66 2 1v2c0.588 0.287 1.18 0.575 1.78 0.871 9.98 5.08 19.1 12.1 27.3 19.7 4.48 4.12 9.2 7.65 14.2 11.2 2.12 1.52 4.21 3.08 6.31 4.64 12.4 9.27 12.4 9.27 25.5 17.6 0.561 0.332 1.12 0.665 1.7 1.01 9.11 5.37 18.3 9.67 28.2 13.5 0.752 0.295 1.5 0.59 2.28 0.895 4.62 1.8 9.22 3.37 14 4.68 2.52 1.27 2.93 2.26 3.84 4.92 0.406 2.35 0.729 4.71 1 7.07 0.0812 0.683 0.162 1.37 0.246 2.07 0.258 2.18 0.507 4.36 0.754 6.54 0.63 14.5 0.63 14.5 5.56 27.2 3.06 1.33 6.11 1.83 9.38 2.46 2.06 0.605 2.06 0.605 4.12 2.73 0.464 0.928 0.464 0.928 0.938 1.88-1.65 1.65-3.81 1.63-6.06 2.06-0.919 0.177-1.84 0.353-2.79 0.535-0.71 0.133-1.42 0.266-2.15 0.402 1.36 5.44 3.78 8.46 7.56 12.4 0.535 0.567 1.07 1.13 1.62 1.72 3.8 3.97 7.76 7.7 11.9 11.3 1.88 1.63 1.88 1.63 4.45 4.26 2.68 2.61 5.54 4.76 8.57 6.95 3.43 2.63 5.29 4.37 6.05 8.74 0.219 2.39 0.219 2.39-0.188 4.69-2.29 2.66-4.87 4.43-8 6h-2c-0.33 0.99-0.66 1.98-1 3-1.64 1.06-1.64 1.06-3.69 2-0.717 0.34-1.43 0.681-2.17 1.03-1.85 0.838-3.71 1.66-5.58 2.47-2.65 1.22-2.65 1.22-3.41 3.36-0.369 2.21-0.369 2.21 1.04 4.04 0.598 0.633 1.2 1.27 1.81 1.92 0.642 0.69 1.28 1.38 1.95 2.09 2.53 2.58 5.07 5.14 7.67 7.65 3.04 3.18 2.46 6.23 2.38 10.4-3.88 1.83-6.76 2-11 2-0.99 0.66-1.98 1.32-3 2 1.12 2.51 2.24 4.28 4.06 6.38 2.68 3.63 3.17 6.32 2.72 10.8-0.986 5.65-2.86 8.7-6.78 12.8-1.54 3.08-1.23 5.58-1 9 1.39 3.62 3.07 7.02 4.79 10.5 1.42 4.1 1.31 6.33 0.215 10.5-4.62 8.07-11.3 13.8-20 17-4.19 1.06-8.18 1.13-12.5 1.12l-3.91 0.00781c-3.04-0.112-5.63-0.513-8.59-1.13-2.1-0.099-4.21-0.181-6.31-0.25-6.33-0.41-11.7-1.79-17.6-3.81-4.58-1.54-9.03-2.59-13.8-3.44-4.86-0.883-8.96-2.11-13.4-4.19-5.95-2.66-11.4-3.39-17.8-2.31-3.52 2.04-4.75 3.63-7 7h-2c-0.264 0.572-0.529 1.14-0.801 1.73-1.26 2.39-2.75 4.37-4.39 6.52-8.91 12.6-14 27-12.4 42.5 1.02 5.49 3.14 10.3 5.61 15.3 0.344 0.714 0.688 1.43 1.04 2.16 2.06 3.94 4.4 6.24 7.96 8.84 1.67 1.67 3.33 3.33 5 5 12 11.9 27.8 18.1 43.6 23.2 0.776 0.25 1.55 0.5 2.35 0.758 11.5 3.58 22.7 4.57 34.6 5.18 1.59 0.0866 3.18 0.174 4.78 0.262 3.87 0.212 7.73 0.415 11.6 0.613-0.33 1.98-0.66 3.96-1 6-1.32 0.33-2.64 0.66-4 1-0.33 1.98-0.66 3.96-1 6 0.701 0.247 1.4 0.495 2.12 0.75 2.88 1.25 2.88 1.25 5.33 2.98 4.74 3.21 9.98 5.45 15.2 7.83 1.02 0.481 2.03 0.963 3.08 1.46 19.6 9.05 38.6 10.2 58.9 3.07 2.21-0.926 4.29-1.96 6.4-3.09 0.931-0.492 1.86-0.985 2.82-1.49 11.3-6.24 20.3-14.6 29.6-23.3 13.1-12.3 28.7-26.3 47.6-27.2 12.1 0.984 23.6 5.3 35 9.06 14.5 4.77 28.5 9.01 43.7 4.94 5.61-3.45 9.8-8.38 14.3-13.2 1.92-1.78 3.59-2.81 5.98-3.84 0.424 0.496 0.848 0.993 1.29 1.5 4.06 4.7 8.28 9.15 12.7 13.5 0.784 0.804 1.57 1.61 2.38 2.44 3.15 3.08 6.48 5.93 9.83 8.79 0.592 0.584 1.18 1.17 1.79 1.77v2c0.585 0.246 1.17 0.492 1.77 0.746 2.57 1.45 3.98 3.05 5.85 5.32 2.33 2.92 2.33 2.92 5.38 4.94v2c3.64-2.03 6.46-4.22 9.4-7.17 0.81-0.811 1.62-1.62 2.45-2.46 0.833-0.845 1.67-1.69 2.52-2.56 0.825-0.826 1.65-1.65 2.5-2.5 4.28-4.31 8.38-8.7 12.3-13.3 3.45-3.89 7.16-7.53 10.8-11.2 0.777-0.781 1.55-1.56 2.35-2.37 4.05-4.04 8.16-7.82 12.6-11.4 0.619-0.784 1.24-1.57 1.88-2.38 2.98-3.68 6.52-6.57 10.1-9.62 0.887-0.825 1.77-1.65 2.69-2.5 2.31-1.5 2.31-1.5 4.81-1.5 5.59 2.24 9.05 6.62 12.9 11.1 1.6 1.91 1.6 1.91 3.36 3.52 1.29 1.38 1.29 1.38 1.29 3.38 0.866 0.371 0.866 0.371 1.75 0.75 2.58 1.43 4.31 3.03 6.25 5.25v2l1.76 0.805c7.93 4.23 13.9 11.9 19.4 18.9 2.64 3.26 5.62 6.13 8.68 9.01 3.35 3.21 5.94 5.7 7.2 10.3-5.15 6.07-10.6 11.7-16.3 17.4-0.866 0.865-1.73 1.73-2.62 2.62-2.75 2.74-5.49 5.48-8.24 8.21-1.85 1.85-3.71 3.7-5.56 5.54-3.39 3.39-6.79 6.77-10.2 10.2-0.721 0.718-1.44 1.44-2.18 2.18-1.18 1.18-2.36 2.35-3.54 3.52-3.15 3.13-6.01 6.43-8.85 9.84-0.512 0.519-1.02 1.04-1.55 1.57h-2c-0.266 0.583-0.531 1.17-0.805 1.77-1.23 2.3-2.6 4.04-4.32 5.98-0.539 0.614-1.08 1.23-1.63 1.86-0.41 0.459-0.82 0.918-1.24 1.39 3.85 4.71 7.96 9.07 12.2 13.4 0.531 0.536 1.06 1.07 1.61 1.62 2.8 2.85 2.8 2.85 6.14 5v2h2c1.48 1.54 1.48 1.54 3.19 3.62 2.92 3.46 5.97 6.35 9.53 9.15l1.29 1.23v2l1.69 0.688c2.97 1.69 5.03 3.78 7.31 6.31v2h2v2h2c3.25 2.88 6.03 6.11 8.81 9.44 0.605 0.721 1.21 1.44 1.83 2.18 1.86 3.26 2.15 4.67 1.36 8.38-2.3 2.9-5.03 5.26-7.81 7.69-1.56 1.42-3.13 2.83-4.69 4.25-1.15 1.03-1.15 1.03-2.33 2.09-5.57 5.06-11.2 10.3-15.9 16.2-1.89 2.24-3.61 3.93-5.83 5.8-5.07 4.39-9.76 9.12-14.5 13.9-1.31 1.31-1.31 1.31-2.64 2.65-2.12 2.14-4.24 4.27-6.36 6.41-2.31-0.99-4.62-1.98-7-3v-2c-0.683-0.191-1.37-0.382-2.07-0.578-4.08-1.98-6.7-4.92-9.8-8.17-4.04-4.19-8.1-8.21-12.6-11.9-4.01-3.4-7.27-7.22-10.5-11.3-2.32-2.39-4.7-4.71-7.1-7.02-0.731-0.714-1.46-1.43-2.21-2.16-0.697-0.674-1.39-1.35-2.11-2.04-1.57-1.77-1.57-1.77-1.57-3.77l-1.79-0.805c-2.9-1.56-4.98-3.67-7.34-5.95-2.62-1.73-3.77-1.75-6.88-1.24-2.36 1.93-4.36 3.79-6.46 5.98-0.627 0.636-1.25 1.27-1.9 1.93-1.36 1.38-2.71 2.77-4.06 4.16-2.13 2.2-4.28 4.38-6.43 6.56-5.34 5.42-10.7 10.9-16 16.3-4.49 4.6-8.99 9.19-13.5 13.8-2.12 2.16-4.22 4.33-6.32 6.5-1.3 1.32-2.59 2.63-3.89 3.94-0.582 0.611-1.16 1.22-1.76 1.85-1.66 1.65-1.66 1.65-4.69 4-3.92-0.0734-5.87-1.36-8.69-4-2.94-2.75-5.93-5.44-8.94-8.11-5.42-4.87-10.6-9.97-15.7-15.1-0.867-0.871-1.73-1.74-2.63-2.64-1.65-1.66-3.31-3.33-4.96-4.99-1.61-1.62-3.23-3.24-4.84-4.86-1.72-1.72-3.42-3.44-5.13-5.16-5.21-5.26-10.4-10.4-16.1-15.1 2.64-9.39 12.6-16.6 19.3-23.3 2.83-2.82 5.66-5.64 8.49-8.46 1.49-1.48 2.98-2.97 4.47-4.45 2.16-2.15 4.32-4.31 6.48-6.46 0.995-0.988 0.995-0.988 2.01-2 3.3-3.3 6.35-6.62 9.2-10.3 10.8-11.4 10.8-11.4 16-14-0.579-6.02-2.6-9.02-6.73-13.4-0.483-0.515-0.965-1.03-1.46-1.56-5.54-5.87-11.2-11.6-16.9-17.3-1.82-1.81-3.63-3.63-5.44-5.45-1.17-1.17-2.33-2.33-3.5-3.5-0.535-0.537-1.07-1.07-1.62-1.63-2.13-2.12-4.23-4.1-6.66-5.88-0.538-0.417-1.08-0.834-1.63-1.26v-2c-4.35 2.23-8.5 4.36-12.1 7.75-5.26 4.76-11.8 7.79-18 11.2-2.71 1.51-5.36 3.11-8.02 4.71-6.76 3.95-13.8 7.23-20.9 10.4-0.754 0.338-1.51 0.675-2.29 1.02-23.1 10.3-47.5 17.7-72.5 21.6-3.12 0.527-6.18 1.28-9.25 2.06-5.19 1.25-10.2 1.81-15.6 2.1-2.71 0.17-5.36 0.427-8.05 0.727-5.53 0.564-11 0.636-16.6 0.609-1.04-0.00411-2.08-0.00822-3.14-0.0125-16.5-0.116-32.5-0.601-48.6-4.11-1.25-0.271-1.25-0.271-2.53-0.548-5.56-1.22-11.1-2.49-16.6-3.79-2.85-0.665-5.7-1.31-8.55-1.95-1.84-0.423-3.69-0.846-5.53-1.27-0.832-0.185-1.66-0.371-2.52-0.562-6.01-1.4-11.6-3.46-17.2-5.88-0.717-0.301-1.43-0.602-2.17-0.912-1.37-0.574-2.73-1.15-4.09-1.73-6.95-2.93-13.8-5.46-21.1-7.44-2.71-0.949-4.41-2.14-6.64-3.92-1.65-0.727-3.3-1.45-4.97-2.14-12.8-5.43-24.9-12.7-36-20.9-0.847-0.603-1.69-1.21-2.57-1.83-12.1-8.69-23.7-18.1-34.9-27.9-1.31-1.13-2.63-2.25-3.95-3.37-4.23-3.6-8.36-7.35-11.6-11.9v-2c-0.532-0.199-1.06-0.397-1.61-0.602-3.47-2.03-5.88-4.82-8.57-7.77-0.546-0.578-1.09-1.16-1.65-1.75-0.52-0.565-1.04-1.13-1.58-1.71-0.472-0.511-0.944-1.02-1.43-1.55-1.31-1.84-1.63-3.44-2.15-5.62-1.33-0.67-2.67-1.34-4-2-1.67-1.89-3.19-3.73-4.69-5.75-0.437-0.581-0.874-1.16-1.32-1.76-4.67-6.28-8.94-12.8-13-19.5-0.456-0.752-0.913-1.5-1.38-2.28-15.5-25.9-27.1-53.5-34.6-82.7-0.223-0.825-0.445-1.65-0.674-2.5-6.25-23.2-10.6-46.6-10.5-70.7 0.00483-1.12 0.00967-2.24 0.0146-3.4 0.0243-3.47 0.0639-6.94 0.11-10.4 0.0189-1.59 0.0189-1.59 0.0381-3.21 0.741-48.3 14.4-95.2 37-138 0.383-0.723 0.765-1.45 1.16-2.19 5.71-10.7 12-20.8 18.8-30.8 1.02-1.58 2.04-3.17 3.06-4.75 6.08-9.11 13.6-17.2 20.9-25.2 1.58-1.77 3.17-3.54 4.75-5.31 3-3.33 6.03-6.57 9.25-9.69 0.33-0.33 0.66-0.66 1-1z" fill="#FA1B5B"/>
<path transform="translate(725 380)" d="m0 0c1.16-0.00129 2.32-0.00258 3.51-0.00391 1.21 0.00387 2.43 0.00773 3.68 0.0117 1.18-0.00387 2.36-0.00773 3.58-0.0117 6.39 0.00704 12.7 0.227 19 0.935 2.52 0.211 4.95 0.175 7.47 0.0771 16.4-0.0462 31.9 5.29 47.4 10.3 1.55 0.486 3.12 0.933 4.7 1.31 3.15 0.832 5.9 2.55 8.73 4.12 5.03 2.74 10.1 5.37 15.2 7.88 28.8 14.4 55.3 37 74.9 62.5 1.16 1.41 1.16 1.41 2.34 2.86 11.5 14.3 20.5 30.3 27.7 47.1 0.308 0.713 0.616 1.43 0.933 2.16 4.04 9.49 7.11 19 9.38 29 0.829 3.63 1.62 6.69 3.28 10.1 2.43 5.38 1.99 11.4 2.09 17.2 0.0318 1.35 0.0641 2.69 0.0969 4.04 0.101 4.51 0.161 9.02 0.216 13.5 0.011 0.832 0.0219 1.66 0.0332 2.52 0.0677 5.27 0.115 10.5 0.141 15.8 0.00872 1.71 0.0202 3.42 0.0346 5.13 0.206 27.6 0.206 27.6-5.21 39.5-0.47 1.5-0.906 3.01-1.29 4.54-7.2 27.4-19.7 53.5-37.7 75.5-0.664 0.837-1.33 1.67-2.01 2.54-5.99 7.48-12.4 14.5-19 21.5-0.65 0.692-1.3 1.38-1.97 2.1-3.8 3.93-7.93 7.31-12.2 10.7-2 1.6-3.94 3.22-5.87 4.91-0.537 0.468-1.07 0.937-1.63 1.42-1.52 1.33-3.03 2.67-4.54 4-9.4 7.63-20.6 13.1-31.3 18.6-2.17 1.11-4.33 2.23-6.49 3.35-18.9 9.75-18.9 9.75-29.7 11.6-3.77 0.64-6.89 1.23-10.3 2.9-10.7 4.81-25.2 4.16-36.8 4.79-0.811 0.0449-1.62 0.0898-2.46 0.136-12.2 0.646-24.3 0.621-36.5-0.136-0.705-0.0427-1.41-0.0853-2.13-0.129-26.8-1.7-54.6-10.2-75.1-28.1-1.1-0.898-2.21-1.79-3.31-2.69-4.98-4.28-8.7-8.49-11.9-14.2-0.342-0.595-0.684-1.19-1.04-1.8-5.54-9.85-7.17-21-4.76-32.1 3.44-11 8.18-21.6 16-30.2 0.526-0.642 1.05-1.28 1.59-1.95 1.42-1.73 2.9-3.4 4.41-5.05 0.701-0.804 1.4-1.61 2.12-2.44 4.88-2.65 9.46-2.38 14.9-1.56 3.28 1.07 6.45 2.27 9.64 3.58 5.94 2.4 11.9 3.81 18.1 5.09 3.77 0.775 7.32 1.62 10.9 3.02 5.13 1.89 10.5 1.87 16 2.1 3.36 0.211 3.36 0.211 5.36 0.719 9.79 2.41 19.9 0.529 28.8-3.88 2.74-1.98 4.95-4.15 7.25-6.62 0.908-0.949 1.82-1.9 2.75-2.88 2.64-3.67 3.04-5.64 3.25-10.1-1.16-3.56-1.16-3.56-2.94-7-2.43-4.96-3.58-8.45-3.06-14 1.81-3.12 1.81-3.12 4-6 3.19-4.37 4.32-8.62 4-14-1.42-3.94-3.8-7.28-7-10 0.812-1.94 0.812-1.94 2-4 2.85-0.95 5.21-1.29 8.19-1.56 1.35-0.126 1.35-0.126 2.73-0.254 0.687-0.0606 1.37-0.121 2.08-0.184-0.425-8.36-4.49-12.1-10.4-17.5-0.574-0.528-1.15-1.06-1.74-1.6-0.527-0.466-1.05-0.933-1.6-1.41-1.56-1.84-2.03-3.12-2.28-5.5 3.27-4.36 6.9-5.99 11.9-8.04 2.78-1.25 4.84-2.97 7.13-4.96 2.31-1.7 4.66-3.35 7-5 0.0973-5.76 0.0973-5.76-2.41-10.8-1.8-1.52-3.65-2.89-5.59-4.24-2.06-1.61-4.03-3.27-6-5v-2c-0.577-0.268-1.15-0.536-1.75-0.812-2.31-1.22-4.27-2.49-6.25-4.19v-2c-0.58-0.257-1.16-0.513-1.76-0.777-6.78-3.7-13-11.3-16.2-18.2 0.33-0.99 0.66-1.98 1-3 4.95-0.99 4.95-0.99 10-2-1.62-3.12-1.62-3.12-3.99-3.59-0.767-0.115-1.53-0.229-2.32-0.348-4.22-0.854-6.82-1.67-9.69-5.06-2.43-8.85-3.19-18-4.25-27.1-1.21-10.3-2.42-20.2-6.44-29.9-0.255-0.632-0.51-1.26-0.772-1.91-1.41-3.47-2.9-6.88-4.49-10.3-4.65-10.1-5.93-17.7-5.05-28.8 0.0863-1.42 0.17-2.84 0.25-4.27 0.154-2.61 0.334-5.21 0.531-7.82 0.123-1.64 0.219-3.27 0.219-4.91-0.944-0.182-0.944-0.182-1.91-0.367-1.8-0.352-3.6-0.715-5.39-1.09-2.14-0.434-4.3-0.812-6.45-1.17-4.64-1.17-8.55-3.76-12.6-6.2-5.59-3.3-11.4-5.51-17.5-7.65-3.5-1.67-5.03-3.34-7.18-6.52 1-2 1-2 2.64-2.75 0.698-0.228 1.4-0.456 2.11-0.691 0.773-0.255 1.55-0.51 2.34-0.773 0.814-0.26 1.63-0.521 2.47-0.789 0.787-0.26 1.57-0.521 2.38-0.789 7.53-2.46 14.9-4.33 22.8-5.27 0.687-0.0831 1.37-0.166 2.08-0.252 5.26-0.621 10.5-1.08 15.8-1.44 3.9-0.407 7.16-1.37 11.2-1.38z" fill="#FBFEFE"/>
<path transform="translate(519,378)" d="m0 0c1.7 0.329 3.39 0.743 5.06 1.19 4.24 1.11 8.48 2.18 12.7 3.2 22.4 5.43 43.8 14.1 63.2 26.6 0.66 0.33 1.32 0.66 2 1v2c0.588 0.287 1.18 0.575 1.78 0.871 9.98 5.08 19.1 12.1 27.3 19.7 4.48 4.12 9.2 7.65 14.2 11.2 2.12 1.52 4.21 3.08 6.31 4.64 12.4 9.27 12.4 9.27 25.5 17.6 0.561 0.332 1.12 0.665 1.7 1.01 9.11 5.37 18.3 9.67 28.2 13.5 0.752 0.295 1.5 0.59 2.28 0.895 4.62 1.8 9.22 3.37 14 4.68 2.52 1.27 2.93 2.26 3.84 4.92 0.406 2.35 0.729 4.71 1 7.07 0.0812 0.683 0.162 1.37 0.246 2.07 0.258 2.18 0.507 4.36 0.754 6.54 0.63 14.5 0.63 14.5 5.56 27.2 3.06 1.33 6.11 1.83 9.38 2.46 2.06 0.605 2.06 0.605 4.12 2.73 0.464 0.928 0.464 0.928 0.938 1.88-1.65 1.65-3.81 1.63-6.06 2.06-0.919 0.177-1.84 0.353-2.79 0.535-0.71 0.133-1.42 0.266-2.15 0.402 1.36 5.44 3.78 8.46 7.56 12.4 0.535 0.567 1.07 1.13 1.62 1.72 3.8 3.97 7.76 7.7 11.9 11.3 1.88 1.63 1.88 1.63 4.45 4.26 2.68 2.61 5.54 4.76 8.57 6.95 4.67 3.58 4.67 3.58 5.38 6.69 0.058 0.801 0.116 1.6 0.176 2.43 0.0986 1.21 0.0986 1.21 0.199 2.45 0.0374 0.615 0.0748 1.23 0.113 1.86-2.12 1.69-2.12 1.69-5 3-2.02-0.966-4.01-1.97-6-3-2.3-0.622-4.61-1.17-6.95-1.65-1.34-0.286-2.68-0.573-4.02-0.859-2.07-0.434-4.14-0.863-6.22-1.29-14-2.9-25.5-7.59-37.5-15.4-2.11-1.35-4.23-2.69-6.35-4.03-1.02-0.65-2.04-1.3-3.09-1.97-6.52-4.12-13.2-8-19.9-11.8-1.26-0.721-1.26-0.721-2.54-1.46-9.9-5.66-19.8-11-30.4-15.2-1.21-0.49-1.21-0.49-2.45-0.991-9.95-3.84-21.9-5.48-32-1.57-12.7 5.86-21.4 16.4-26.6 29.2-4.25 13.1-6.71 26.9-7.76 40.6-0.386 3.89-1.29 7.61-2.24 11.4-0.24 0.995-0.48 1.99-0.727 3.02-2.05 8.42-4.65 16.1-8.27 24-0.433 0.99-0.866 1.98-1.31 3-10.2 18.1-29.7 27.5-49 33-1.32 0.358-2.64 0.713-3.96 1.06-6.75 1.85-13.2 4.38-19.7 6.97-1.05 0.416-2.1 0.831-3.18 1.26-6.21 2.51-12 5.33-17.8 8.74-1.34 0.77-1.34 0.77-2.71 1.55-2.45 1.45-4.87 2.94-7.29 4.45-1.36 0.837-1.36 0.837-2.75 1.69-5.45 3.54-8.44 5.98-10.2 12.3h-3c0.33 0.66 0.66 1.32 1 2 0.04 2 0.0435 4 0 6h-2c-1.36-3.87-2.71-7.75-4.05-11.6-0.456-1.31-0.914-2.62-1.37-3.93-3.18-9.07-6.05-18.2-8.57-27.4-0.267-0.971-0.533-1.94-0.808-2.94-6.22-23-10.4-46.3-10.3-70.2 0.00483-1.12 0.00967-2.24 0.0146-3.4 0.0243-3.47 0.0639-6.94 0.11-10.4 0.0189-1.59 0.0189-1.59 0.0381-3.21 0.741-48.3 14.4-95.2 37-138 0.383-0.723 0.765-1.45 1.16-2.19 5.71-10.7 12-20.8 18.8-30.8 1.02-1.58 2.04-3.17 3.06-4.75 6.08-9.11 13.6-17.2 20.9-25.2 1.58-1.77 3.17-3.54 4.75-5.31 3-3.33 6.03-6.57 9.25-9.69 0.33-0.33 0.66-0.66 1-1z" fill="#7E0587"/>
<path transform="translate(654 541)" d="m0 0c0.898 0.391 1.8 0.781 2.72 1.18 18.8 8.39 36.5 19.2 53.8 30.3 15.5 9.91 29.3 14.8 47.3 18.5 10.5 2.19 10.5 2.19 15.4 5.14-0.33 0.99-0.66 1.98-1 3-1.33 0.333-2.67 0.667-4 1-0.33 0.99-0.66 1.98-1 3-1.64 1.06-1.64 1.06-3.69 2-0.717 0.34-1.43 0.681-2.17 1.03-1.85 0.838-3.71 1.66-5.58 2.47-2.65 1.22-2.65 1.22-3.41 3.36-0.369 2.21-0.369 2.21 1.04 4.04 0.598 0.633 1.2 1.27 1.81 1.92 0.963 1.03 0.963 1.03 1.95 2.09 2.53 2.58 5.07 5.14 7.67 7.65 3.04 3.18 2.46 6.23 2.38 10.4-3.88 1.83-6.76 2-11 2-1.49 0.99-1.49 0.99-3 2 1.12 2.51 2.24 4.28 4.06 6.38 2.68 3.63 3.17 6.32 2.72 10.8-0.986 5.65-2.86 8.7-6.78 12.8-1.54 3.08-1.23 5.58-1 9 1.39 3.62 3.07 7.02 4.79 10.5 1.42 4.1 1.31 6.33 0.215 10.5-4.62 8.07-11.3 13.8-20 17-4.19 1.06-8.18 1.13-12.5 1.12-1.29 0.00258-2.58 0.00516-3.91 0.00781-3.04-0.112-5.63-0.513-8.59-1.13-2.1-0.099-4.21-0.181-6.31-0.25-6.33-0.41-11.7-1.79-17.6-3.81-4.58-1.54-9.03-2.59-13.8-3.44-4.86-0.883-8.96-2.11-13.4-4.19-5.95-2.66-11.4-3.39-17.8-2.31-3.52 2.04-4.75 3.63-7 7h-2c-0.264 0.572-0.529 1.14-0.801 1.73-1.26 2.39-2.75 4.37-4.39 6.52-8.91 12.6-14 27-12.4 42.5 1.02 5.49 3.14 10.3 5.61 15.3 0.344 0.714 0.688 1.43 1.04 2.16 2.06 3.94 4.4 6.24 7.96 8.84l5 5c5.63 5.6 11.8 9.41 18.7 13.2 8.1 4.45 8.1 4.45 9.27 6.8 0.99 0.33 1.98 0.66 3 1-0.371 1.61-0.371 1.61-0.75 3.25-0.578 3.66-0.578 3.66 1.06 6.19 4.09 2.38 8.06 1.88 12.7 1.56v2c-2.31 0.33-4.62 0.66-7 1v2h7c0.33 1.98 0.66 3.96 1 6 2.31 0.66 4.62 1.32 7 2-3.2 1.85-5.83 2.35-9.5 2.62-1.41 0.112-1.41 0.112-2.84 0.227-2.22 0.124-4.44 0.148-6.66 0.148-0.784 0.0825-1.57 0.165-2.38 0.25-3.64-0.347-5.74-2.1-8.62-4.25 3.87-1 3.87-1 5-1-4.05-0.982-7.84-1.08-12-1 0.66 0.66 1.32 1.32 2 2v2c0.33 0.99 0.66 1.98 1 3-0.33 0.66-0.66 1.32-1 2-3.73-1.36-7.11-3.11-10.6-5.02-12.8-7.08-26.2-12.5-40.4-16-1.92-0.539-3.83-1.08-5.75-1.62-4.78-1.3-9.46-2.11-14.4-2.58-3.78-0.38-7.37-0.86-11-1.86-3.64-1.06-3.64-1.06-6.81-0.938-3.19 0-5.73-0.592-8.78-1.46-5.59-1.35-11.4-1.83-17.1-2.54-0.656-0.0825-1.31-0.165-1.99-0.25-0.661-0.0825-1.32-0.165-2-0.25-0.675-0.085-1.35-0.17-2.04-0.258-1.41-0.163-2.82-0.304-4.23-0.424-6.03-0.538-11.6-1.98-17.4-3.76-1.36-0.397-1.36-0.397-2.74-0.803-0.859-0.26-1.72-0.519-2.6-0.787-0.775-0.235-1.55-0.469-2.35-0.711-1.81-0.762-1.81-0.762-2.81-2.76-1.9-0.601-1.9-0.601-4-1-0.99-0.33-1.98-0.66-3-1v-2c-0.563-0.211-1.13-0.423-1.71-0.641-3.06-1.81-4.89-4.3-6.98-7.11-0.437-0.581-0.874-1.16-1.32-1.76-11.7-15.8-21.5-33.1-30.2-50.7-0.383-0.741-0.766-1.48-1.16-2.24-2.69-5.61-3.02-10.4-2.59-16.6h3c0.0619-0.722 0.124-1.44 0.188-2.19 2.79-9.67 17-15.7 25.2-20.4 8.51-4.63 17.5-8.03 26.6-11.4 1.08-0.411 2.15-0.822 3.26-1.25 4.52-1.69 9.04-3.12 13.7-4.44 16.7-5.11 37.3-13.1 46.1-29.3 6.04-12.1 9.48-23.2 11.5-36.5 0.465-2.5 0.465-2.5 1.46-4.5 0.326-2.18 0.61-4.37 0.875-6.56 5.84-45.7 5.84-45.7 23.2-60.2 15.9-11.2 32.4-9.96 49.7-2.38z" fill="#FA1B5B"/>
<path transform="translate(840,307)" d="m0 0c5.14 0.437 9.05 1.74 13.7 3.93 2.16 1.01 4.34 1.91 6.56 2.79 35.1 14 71.9 36.4 97.7 64.3v2c0.577 0.227 1.15 0.454 1.75 0.688 2.85 1.66 4.37 3.63 6.25 6.31v2c0.598 0.227 1.2 0.454 1.81 0.688 2.77 1.66 3.55 3.55 5.19 6.31 1.3 1.02 1.3 1.02 2.62 2.06 2.6 2.12 2.73 2.82 3.38 5.94 0.99 0.33 1.98 0.66 3 1 0.688 2.06 0.688 2.06 1 4h2c3 4.38 3 4.38 3 7h2c4 6.75 4 6.75 4 9h2c1.76 2.45 3.4 4.89 5 7.44 0.491 0.774 0.983 1.55 1.49 2.34 1.51 2.4 3.02 4.81 4.51 7.22 0.424 0.678 0.848 1.36 1.28 2.05 12.9 20.8 23.1 42.7 30.7 65.9 0.416 1.24 0.833 2.48 1.26 3.76 3.37 10.8 5.11 22.1 7.18 33.3 0.694 3.67 1.47 7.31 2.25 11 1.3 6.36 2.04 12.7 2.67 19.2 0.323 4.03 0.323 4.03 1.65 7.81 1.87 19.5 2.28 40.1-3 59-0.34 1.79-0.652 3.58-0.938 5.38-0.16 0.982-0.32 1.96-0.484 2.98-0.318 2.01-0.634 4.02-0.939 6.03-2.21 14.4-5.55 28.2-9.88 42.2-0.967 3.14-1.87 6.29-2.76 9.46-2.16-3.57-2.43-6.82-2.81-10.9-1.76-15.9-5.97-31.3-12.2-46.1-0.368-0.874-0.736-1.75-1.11-2.65-2.89-6.82-5.86-13.6-8.89-20.4-0.514-1.15-0.514-1.15-1.04-2.33-11.2-24.9-25.1-47.7-42-69.2-0.494-0.629-0.989-1.26-1.5-1.91-1.54-1.84-1.54-1.84-4.44-3.59h-3c-0.33 1.98-0.66 3.96-1 6h-2c-2.07-4.97-3.44-9.81-4.62-15.1-11.2-47-43.9-90.6-82.4-119-0.896-0.691-1.79-1.38-2.71-2.09-14.8-11.2-31.9-19.9-48.6-28-1.67-0.925-1.67-0.925-3.67-2.93-0.553-6.46 0.818-11.6 2.81-17.8 0.562-1.79 1.12-3.57 1.68-5.36 0.267-0.85 0.533-1.7 0.808-2.58 0.831-2.75 1.51-5.51 2.14-8.31 4.26-17.5 11.8-34.3 18.6-51z" fill="#FA1C61"/>
<path transform="translate(732 290)" d="m0 0c3.55 0.00315 7.09-0.0203 10.6-0.0457 14-0.0389 27.5 0.872 41.3 3.36 1.35 0.239 1.35 0.239 2.72 0.482 17.9 3.19 36 6.63 53.3 12.5-0.57 4.09-1.49 7.61-3.07 11.4-0.417 1.02-0.835 2.03-1.26 3.08-0.668 1.61-0.668 1.61-1.35 3.25-7.44 18.3-12.9 36.6-17.7 55.8-0.661 2.42-0.661 2.42-1.66 4.42-0.225 1.54-0.408 3.08-0.562 4.62-0.146 1.46-0.292 2.92-0.438 4.38-5.46-1.48-10.9-2.97-16.4-4.54-12.6-3.61-25.1-6.89-38.3-6.47-2.44 2.6e-4 -4.79-0.222-7.22-0.484-6.53-0.618-13-0.699-19.6-0.703-1.15-0.0122-2.29-0.0245-3.47-0.0371-6.39-0.0109-12.4 0.423-18.6 1.74-2.41 0.481-4.77 0.761-7.21 0.98-1.73 0.165-3.46 0.332-5.19 0.5-1.01 0.0967-2.03 0.193-3.07 0.293-8.26 0.968-15.8 3.03-23.6 5.67-0.776 0.261-1.55 0.522-2.35 0.79-0.691 0.239-1.38 0.477-2.09 0.723-1.86 0.519-1.86 0.519-4.86 0.519 0.122 1.91 0.122 1.91 1 4 3.6 2.46 7.4 4.06 11.4 5.69 5.11 2.1 9.74 4.54 14.4 7.44 5.78 3.53 11.4 5.33 18.1 6.68 1.7 0.348 3.38 0.764 5.06 1.19 1.48 2.95 0.842 5.35 0.562 8.62-0.0938 1.37-0.185 2.75-0.273 4.12-0.176 2.71-0.394 5.4-0.641 8.1-0.667 12.1 3.44 21.3 8.35 32.2 0.997 2.31 1.97 4.62 2.94 6.94 0.57 1.31 0.57 1.31 1.15 2.65 0.929 2.46 1.47 4.82 1.91 7.41-27.3-3.97-52.1-21-73.6-37.2-2.25-1.69-4.52-3.36-6.79-5.03-6.71-4.95-13.1-9.99-19.2-15.7-6.83-6.06-14.5-10.9-22.3-15.6-0.666-0.477-1.33-0.954-2.02-1.45v-2c-0.882-0.259-1.76-0.518-2.67-0.785-3.32-1.21-5.67-2.66-8.58-4.65-19.7-12.7-43.4-19.6-66.2-24-2.52-0.543-2.52-0.543-4.52-1.54 4.4-9.62 14.8-15.8 23-22 0.604-0.46 1.21-0.919 1.83-1.39 9.12-6.9 18.5-13.3 28.2-19.4 1.8-1.14 3.59-2.28 5.37-3.43 33.5-21.2 73.7-35 113-40.4 1.89-0.27 3.77-0.574 5.65-0.9 11.7-1.86 23.3-1.82 35.1-1.8z" fill="#05D8D3"/>
<path transform="translate(939,809)" d="m0 0c-0.66 1.32-1.32 2.64-2 4l-4-2c2.01 3.01 2.84 3.63 6 5-3.67 1.18-7.17 1.07-11 1-0.33 0.66-0.66 1.32-1 2-2.69 0.8-5.33 1.5-8.06 2.12-0.759 0.182-1.52 0.364-2.3 0.551-1.88 0.449-3.76 0.887-5.64 1.32v-2c-1.98 0.66-3.96 1.32-6 2 0.206 0.598 0.413 1.2 0.625 1.81 0.375 2.19 0.375 2.19-1.62 5.19 0.66 0.66 1.32 1.32 2 2-1.65 0.33-3.3 0.66-5 1-0.124 0.701-0.247 1.4-0.375 2.12-0.663 3.05-1.6 5.93-2.62 8.88h-5v2h-11c1.65-1.32 3.3-2.64 5-4-1.98-0.33-3.96-0.66-6-1v4h-4c0.33 0.66 0.66 1.32 1 2 1.49-0.495 1.49-0.495 3-1 0.812 2.69 0.812 2.69 1 6-2.31 2.88-2.31 2.88-5 5h-2c-0.33-0.66-0.66-1.32-1-2-1.32 0.66-2.64 1.32-4 2 0.33-1.32 0.66-2.64 1-4l-2-1c-0.66 0.99-1.32 1.98-2 3-0.33-1.32-0.66-2.64-1-4-3.5 1.28-3.5 1.28-7 3-0.33 0.99-0.66 1.98-1 3-2.71 1.35-5.01 1.07-8 1v2c-0.908 0.0825-1.82 0.165-2.75 0.25-3.65 0.842-4.88 1.93-7.25 4.75 0.33 0.99 0.66 1.98 1 3-0.949 0.309-1.9 0.619-2.88 0.938-2.99 0.936-2.99 0.936-5.12 2.06l2 1c-0.66 0.99-1.32 1.98-2 3 0.802 2.67 0.802 2.67 2 5 0.33-0.99 0.66-1.98 1-3 4.83-0.0833 9.24 0.0474 14 1 0.33-0.99 0.66-1.98 1-3h8v2h2v2c3.47-0.99 3.47-0.99 7-2v2c-3.46 3-3.46 3-6 3v-2c-1.49 0.495-1.49 0.495-3 1 0.33 0.99 0.66 1.98 1 3 1.26-0.371 2.52-0.743 3.81-1.12 2.14-0.633 2.14-0.633 4.19-0.875 0.99 0.66 1.98 1.32 3 2 2.47-0.118 2.47-0.118 5.06-0.75 0.878-0.18 1.76-0.361 2.66-0.547 2.45-0.561 2.45-0.561 4.28-2.7 1.85-0.607 3.73-1.14 5.62-1.62 1-0.26 2.01-0.521 3.04-0.789 0.771-0.193 1.54-0.387 2.34-0.586-2.77 3.36-6.54 4.95-10.4 6.81-1.08 0.528-1.08 0.528-2.17 1.07-2.15 1.05-4.3 2.09-6.45 3.12-1.1 0.531-2.21 1.06-3.35 1.61-3.2 1.51-6.42 2.95-9.65 4.39-1.13 0.519-2.26 1.04-3.43 1.57-20.9 9.32-43.8 15.6-66.4 19.1-3.12 0.527-6.18 1.28-9.25 2.06-5.19 1.25-10.2 1.81-15.6 2.1-2.71 0.17-5.36 0.427-8.05 0.727-5.53 0.564-11 0.636-16.6 0.609-1.04-0.00411-2.08-0.00822-3.14-0.0125-16.5-0.116-32.5-0.601-48.6-4.11-0.835-0.181-1.67-0.362-2.53-0.548-5.56-1.22-11.1-2.49-16.6-3.79-2.85-0.665-5.7-1.31-8.55-1.95-1.84-0.423-3.69-0.846-5.53-1.27-0.832-0.185-1.66-0.371-2.52-0.562-6.01-1.4-11.6-3.46-17.2-5.88-0.717-0.301-1.43-0.602-2.17-0.912-1.37-0.574-2.73-1.15-4.09-1.73-6.95-2.93-13.8-5.46-21.1-7.44-2.71-0.949-4.41-2.14-6.64-3.92-1.65-0.727-3.3-1.45-4.97-2.14-12.8-5.43-24.9-12.7-36-20.9-0.847-0.603-1.69-1.21-2.57-1.83-12.1-8.69-23.7-18.1-34.9-27.9-1.31-1.13-2.63-2.25-3.95-3.37-4.23-3.6-8.36-7.35-11.6-11.9v-2c-0.598-0.269-1.2-0.538-1.81-0.814-2.2-1.19-3.52-2.33-5.2-4.15-0.529-0.571-1.06-1.14-1.6-1.73-0.539-0.594-1.08-1.19-1.63-1.8-0.554-0.594-1.11-1.19-1.68-1.8-4.07-4.44-4.07-4.44-4.07-6.7 3.22 1.05 6.4 2.15 9.56 3.38 9.08 3.38 17.5 5.92 27.2 6.41 4.25 0.28 8.38 0.996 12.6 1.74 2.08 0.369 4.17 0.68 6.27 0.969 2.77 0.41 5.45 0.923 8.19 1.5 4.28 0.879 8.52 1.39 12.9 1.79 5.67 0.517 10.9 1.62 16.3 3.21 0.91 0.151 1.82 0.302 2.76 0.457 22 3.68 43.1 12.3 62.2 23.5 0.33-0.66 0.66-1.32 1-2-0.936-2.36-1.93-4.7-3-7 5.22-0.18 9.07 0.0291 14 2v3c-1.32-0.66-2.64-1.32-4-2 3.95 2.75 7.21 3.63 12 4l1-1c2.02-0.234 4.04-0.413 6.06-0.562 1.1-0.0838 2.21-0.168 3.35-0.254 0.855-0.0606 1.71-0.121 2.59-0.184v-1c-1.65-0.33-3.3-0.66-5-1v-7h-7v-2c2.31-0.33 4.62-0.66 7-1v-2c-0.664 0.13-1.33 0.26-2.01 0.395-7.21 1.13-7.21 1.13-11.2-1.52-1.81-2.88-1.81-2.88-1.69-5.56 0.875-2.31 0.875-2.31 1.88-4.31-1.32-0.33-2.64-0.66-4-1v-2c5.08 1.28 10.1 2.63 15 4.46 11.7 4.3 22.6 5.87 35 6.54 1.42 0.0824 1.42 0.0824 2.88 0.167 5.71 0.326 11.4 0.6 17.1 0.833-0.33 1.98-0.66 3.96-1 6-1.32 0.33-2.64 0.66-4 1-0.33 1.98-0.66 3.96-1 6 0.701 0.247 1.4 0.495 2.12 0.75 2.88 1.25 2.88 1.25 5.33 2.98 4.74 3.21 9.98 5.45 15.2 7.83 1.02 0.481 2.03 0.963 3.08 1.46 19.6 9.05 38.6 10.2 58.9 3.07 2.21-0.926 4.29-1.96 6.4-3.09 0.931-0.492 1.86-0.985 2.82-1.49 11.3-6.24 20.3-14.6 29.6-23.3 30-28.2 51.2-28.9 88.6-16.2z" fill="#FA1B61"/>
<path transform="translate(959,552)" d="m0 0c6.3 0.841 8.24 4.18 12 9 0.438 0.557 0.875 1.11 1.33 1.69 20.2 25.8 35.1 55.1 47.7 85.3 0.398 0.95 0.797 1.9 1.21 2.88 7.33 17.7 12.3 36 13.8 55.1 0.141 1.64 0.141 1.64 0.285 3.3-0.394 5.11-2.16 9.26-4.16 13.9-0.401 0.96-0.801 1.92-1.21 2.91-3.79 8.91-8.23 17.4-12.9 25.9-1.28 2.38-2.44 4.8-3.6 7.23-4.04 8.18-9.22 16-14.9 23.1-3.55 4.57-3.5 8.91-3.5 14.6-0.888 0.379-0.888 0.379-1.79 0.766-2.47 1.38-3.74 2.8-5.52 4.98-6.48 7.63-10.9 11-20.9 12.1-14 0.86-27.1-4.38-40.1-8.91-15.9-5.51-30-9.76-45.7-2.16-13 6.82-23.6 16.1-34.2 26.2-17.1 16.4-37.9 29.5-62.4 29.3-19.8-1.25-41.7-10.2-57.4-22.2 0.33-1.98 0.66-3.96 1-6 1.32-0.33 2.64-0.66 4-1 0.124-0.804 0.247-1.61 0.375-2.44 0.206-0.846 0.413-1.69 0.625-2.56 3.03-1.51 6.22-1.32 9.54-1.46 1.57-0.0787 3.13-0.157 4.7-0.236 2.45-0.118 4.9-0.234 7.36-0.348 19.9-0.564 19.9-0.564 38.8-5.98 3.05-1.14 5.93-1.51 9.16-1.97 12-2.25 22.7-8.43 33.4-14 1.63-0.835 1.63-0.835 3.3-1.69 11.4-5.88 22.2-11.5 31.7-20.3 1.77-1.52 3.54-3.03 5.32-4.54 2.39-2.03 4.76-4.08 7.14-6.13 1.31-1.13 2.62-2.25 3.93-3.37 7.51-6.46 14.1-13.4 20.3-21.1 1.49-1.85 3-3.69 4.54-5.5 20.9-24.7 33-54.5 42.1-85.2 0.566-1.88 1.17-3.74 1.78-5.61 2.64-10.8 2.03-22.1 2-33.1-3.32e-4 -1.3-3.32e-4 -1.3-6.71e-4 -2.63-0.00285-9.59-0.0923-19.2-0.421-28.7-0.0264-0.779-0.0528-1.56-0.08-2.36-0.128-3.68-0.274-7.35-0.443-11-0.0776-1.96-0.0776-1.96-0.157-3.96-0.0524-1.13-0.105-2.27-0.159-3.43 0.156-3.77 0.971-6.7 2.14-10.3z" fill="#FB8AA5"/>
<path transform="translate(1156,812)" d="m0 0c3.33 3.33 6.67 6.67 10 10 0.594 0.559 1.19 1.12 1.8 1.7 3.35 3.2 5.94 5.7 7.2 10.3-5.15 6.07-10.6 11.7-16.3 17.4-1.3 1.3-1.3 1.3-2.62 2.62-2.75 2.74-5.49 5.48-8.24 8.21-1.85 1.85-3.71 3.7-5.56 5.54-3.39 3.39-6.79 6.77-10.2 10.2-0.721 0.718-1.44 1.44-2.18 2.18-1.18 1.18-2.36 2.35-3.54 3.52-3.15 3.13-6.01 6.43-8.85 9.84-0.512 0.519-1.02 1.04-1.55 1.57h-2c-0.266 0.583-0.531 1.17-0.805 1.77-1.23 2.3-2.6 4.04-4.32 5.98-0.539 0.614-1.08 1.23-1.63 1.86-0.41 0.459-0.82 0.918-1.24 1.39 3.85 4.71 7.96 9.07 12.2 13.4 0.531 0.536 1.06 1.07 1.61 1.62 2.8 2.85 2.8 2.85 6.14 5v2h2c1.48 1.54 1.48 1.54 3.19 3.62 2.92 3.46 5.97 6.35 9.53 9.15 0.424 0.405 0.848 0.81 1.29 1.23v2c0.557 0.227 1.11 0.454 1.69 0.688 2.97 1.69 5.03 3.78 7.31 6.31v2h2v2h2c3.25 2.88 6.03 6.11 8.81 9.44 0.605 0.721 1.21 1.44 1.83 2.18 1.86 3.26 2.15 4.67 1.36 8.38-2.3 2.9-5.03 5.26-7.81 7.69-1.56 1.42-3.13 2.83-4.69 4.25-0.768 0.69-1.54 1.38-2.33 2.09-5.57 5.06-11.2 10.3-15.9 16.2-1.89 2.24-3.61 3.93-5.83 5.8-5.07 4.39-9.76 9.12-14.5 13.9-1.31 1.31-1.31 1.31-2.64 2.65-2.12 2.14-4.24 4.27-6.36 6.41-2.31-0.99-4.62-1.98-7-3v-2c-0.683-0.191-1.37-0.382-2.07-0.578-4.08-1.98-6.7-4.92-9.8-8.17-4.04-4.19-8.1-8.21-12.6-11.9-4.01-3.4-7.27-7.22-10.5-11.3-2.32-2.39-4.7-4.71-7.1-7.02-0.731-0.714-1.46-1.43-2.21-2.16-0.697-0.674-1.39-1.35-2.11-2.04-1.57-1.77-1.57-1.77-1.57-3.77-0.589-0.266-1.18-0.531-1.79-0.805-2.9-1.56-4.98-3.67-7.34-5.95-2.62-1.73-3.77-1.75-6.88-1.24-2.36 1.93-4.36 3.79-6.46 5.98-0.627 0.636-1.25 1.27-1.9 1.93-1.36 1.38-2.71 2.77-4.06 4.16-2.13 2.2-4.28 4.38-6.43 6.56-5.34 5.42-10.7 10.9-16 16.3-4.49 4.6-8.99 9.19-13.5 13.8-2.12 2.16-4.22 4.33-6.32 6.5-1.3 1.32-2.59 2.63-3.89 3.94-0.873 0.917-0.873 0.917-1.76 1.85-1.66 1.65-1.66 1.65-4.69 4-3.92-0.0734-5.87-1.36-8.69-4-2.94-2.75-5.93-5.44-8.94-8.11-5.42-4.87-10.6-9.97-15.7-15.1-0.867-0.871-1.73-1.74-2.63-2.64-1.65-1.66-3.31-3.33-4.96-4.99-1.61-1.62-3.23-3.24-4.84-4.86-1.72-1.72-3.42-3.44-5.13-5.16-5.21-5.26-10.4-10.4-16.1-15.1 2.64-9.39 12.6-16.6 19.3-23.3 2.83-2.82 5.66-5.64 8.49-8.46 1.49-1.48 2.98-2.97 4.47-4.45 2.16-2.15 4.32-4.31 6.48-6.46 0.664-0.658 1.33-1.32 2.01-2 3.3-3.3 6.35-6.62 9.2-10.3 3.14-3.3 6.43-6.18 10-9 0.427 0.606 0.853 1.21 1.29 1.84 4.82 6.46 10.1 11.1 16.5 15.8 2.79 2.05 5.48 4.17 8.16 6.37 10.5 8.39 21.3 15.6 33.1 21.9 1.89 1.03 3.74 2.13 5.58 3.25 7.29 4.27 12.8 5.67 21.2 3.88 7.29-2.43 12.9-6.62 17.2-13.1 3.13-7.29 5.03-14.7 6.56-22.5 0.212-1.04 0.424-2.07 0.642-3.14 1.31-6.51 2.4-13 3.36-19.6 4.09-27.3 18.7-50.7 40.2-67.5 8.54-6.12 17.7-11.5 27.1-16.3 1.16-0.594 2.31-1.19 3.5-1.8 1.02-0.501 2.04-1 3.09-1.52 2.9-1.91 4.09-3.53 5.54-6.67-0.206-2.25-0.206-2.25-1-4z" fill="#7E0587"/>
<path transform="translate(840,307)" d="m0 0c5.14 0.437 9.05 1.74 13.7 3.93 2.16 1.01 4.34 1.91 6.56 2.79 35.1 14 71.9 36.4 97.7 64.3v2c0.577 0.227 1.15 0.454 1.75 0.688 2.85 1.66 4.37 3.63 6.25 6.31v2c0.598 0.227 1.2 0.454 1.81 0.688 2.77 1.66 3.55 3.55 5.19 6.31 1.3 1.02 1.3 1.02 2.62 2.06 2.6 2.12 2.73 2.82 3.38 5.94 0.99 0.33 1.98 0.66 3 1 0.688 2.06 0.688 2.06 1 4h2c3 4.38 3 4.38 3 7h2c4 6.75 4 6.75 4 9h2c1.76 2.45 3.4 4.89 5 7.44 0.489 0.769 0.978 1.54 1.48 2.33 1.52 2.4 3.02 4.81 4.52 7.23 0.44 0.71 0.879 1.42 1.33 2.15 5.16 8.4 9.87 17 14.3 25.8 0.658 1.31 0.658 1.31 1.33 2.64 3.05 6.17 3.05 6.17 3.05 8.42-6.72 0.118-13.3-0.291-20-0.793-3.87-0.202-7.66-0.136-11.5-0.0195-12.2 0.0509-22.2-3.32-31.4-11.2-0.808-0.639-1.62-1.28-2.45-1.94-16-14.1-22.9-38.4-28.7-58.2-4.95-16.5-17-31.2-31.9-39.8-12.5-6.56-24-5.69-37.1-1.74-14.2 4.73-30 12.5-37.1 26.3-0.648 1.47-1.28 2.94-1.88 4.44-1.27-0.427-2.54-0.867-3.81-1.31-0.708-0.244-1.42-0.487-2.14-0.738-2.42-1.12-3.57-1.7-5.04-3.95-0.653-6.44 0.825-11.7 2.81-17.8 0.562-1.79 1.12-3.57 1.68-5.36 0.267-0.85 0.533-1.7 0.808-2.58 0.831-2.75 1.51-5.51 2.14-8.31 4.26-17.5 11.8-34.3 18.6-51z" fill="#7E0587"/>
<path transform="translate(878 1132)" d="m0 0 2.69 0.0488c1.37 0.0628 1.37 0.0628 2.76 0.127 0.931 0.0226 1.86 0.0451 2.82 0.0684 2.29 0.0587 4.58 0.141 6.87 0.244 2.79 4.71 3.4 8.52 3.26 13.9-0.00662 0.737-0.0132 1.47-0.0201 2.23-0.0233 2.34-0.0669 4.67-0.113 7.01-0.0352 2.34-0.0659 4.69-0.0913 7.03-0.0169 1.45-0.0399 2.91-0.07 4.36-0.049 3.32-0.00582 6.31 1.04 9.48 2.2 0.508 2.2 0.508 5 0 1.83-1.38 3.44-2.87 5.06-4.49 6.59-5.12 16-4.28 23.9-3.51 6.96 1.39 11.7 3.78 16.1 9.41 0.926 1.59 0.926 1.59 0.926 3.59h2c0.961 2.21 1.92 4.42 2.88 6.62 0.269 0.617 0.539 1.23 0.816 1.87 2.4 5.56 4.43 10.7 4.87 16.8 0.226 3.51 0.226 3.51 1.44 6.75 0.418 8.79 0.33 16.8-3 25-0.356 1.01-0.712 2.01-1.08 3.05-4.59 12.8-10.1 19.5-22.2 25.6-4.03 1.47-7.49 1.77-11.7 1.66-0.673 0.00322-1.35 0.00645-2.04 0.00977-8.03-0.0853-15.4-2.31-21.6-7.57-2.15-1.99-2.15-1.99-4.34-1.58-2.51 1.03-3.34 2.25-4.97 4.39-2.45 2.59-3.72 3.37-7.27 4.04-8.77 0.216-8.77 0.216-12-2.31-2.22-2.76-2.35-4.02-2.36-7.52-0.0127-1.06-0.0254-2.12-0.0386-3.21 0.00653-1.16 0.0131-2.31 0.0198-3.5-0.0129-1.83-0.0129-1.83-0.0261-3.7-0.0188-3.35-0.0196-6.69-0.0107-10 0.00511-2.8-0.00218-5.59-0.00947-8.39-0.017-6.6-0.0134-13.2 0.00329-19.8 0.0169-6.8 0.00109-13.6-0.0312-20.4-0.0267-5.84-0.034-11.7-0.0255-17.5 0.00493-3.49 0.00273-6.98-0.0178-10.5-0.0218-3.89-0.00295-7.78 0.0198-11.7-0.0117-1.15-0.0234-2.31-0.0354-3.5 0.104-8.69 0.104-8.69 3.06-11.8 2.83-1.93 4.1-2.38 7.47-2.27z" fill="#970697"/>
<path transform="translate(494,801)" d="m0 0c3.22 1.05 6.4 2.15 9.56 3.38 9.08 3.38 17.5 5.92 27.2 6.41 4.25 0.28 8.38 0.996 12.6 1.74 2.08 0.369 4.17 0.68 6.27 0.969 2.77 0.41 5.45 0.923 8.19 1.5 4.28 0.879 8.52 1.39 12.9 1.79 5.67 0.517 10.9 1.62 16.3 3.21 0.91 0.151 1.82 0.302 2.76 0.457 31 5.19 60.8 17.6 79.4 43.6 7.71 11.7 11.5 23.6 13.1 37.5 0.0923 0.79 0.185 1.58 0.28 2.39 0.354 3.4 0.563 5.83-0.53 9.11-8.01-0.996-15.8-2.54-23.7-4.38-0.866-0.197-1.73-0.394-2.62-0.596-6.16-1.47-11.9-3.54-17.7-6.03-0.716-0.301-1.43-0.602-2.17-0.912-1.37-0.574-2.73-1.15-4.1-1.73-6.95-2.93-13.8-5.46-21.1-7.44-2.71-0.949-4.41-2.14-6.64-3.92-1.65-0.727-3.3-1.45-4.97-2.14-12.8-5.43-24.9-12.7-36-20.9-0.847-0.603-1.69-1.21-2.57-1.83-12.1-8.69-23.7-18.1-34.9-27.9-1.31-1.13-2.63-2.25-3.95-3.37-4.23-3.6-8.36-7.35-11.6-11.9v-2c-0.598-0.269-1.2-0.538-1.81-0.814-2.2-1.19-3.52-2.33-5.2-4.15-0.529-0.571-1.06-1.14-1.6-1.73-0.539-0.594-1.08-1.19-1.63-1.8-0.554-0.594-1.11-1.19-1.68-1.8-4.07-4.44-4.07-4.44-4.07-6.7z" fill="#7E0587"/>
<path transform="translate(597 1140)" d="m0 0c1.37-0.0184 1.37-0.0184 2.76-0.0371 1.32-0.0029 1.32-0.0029 2.67-0.00586 0.804-0.00411 1.61-0.00822 2.44-0.0125 2.62 0.281 4.11 0.715 6.26 2.24 1.09 2.22 1.09 2.22 1.93 5 0.317 1.02 0.635 2.05 0.961 3.1 0.325 1.1 0.649 2.2 0.984 3.34 0.347 1.13 0.693 2.26 1.05 3.43 0.704 2.3 1.4 4.6 2.1 6.9 1.09 3.6 2.23 7.18 3.37 10.8 3.34 10.4 6.51 20.9 9.6 31.5 0.279 0.949 0.559 1.9 0.847 2.88 0.848 2.89 1.69 5.79 2.53 8.69 0.394 1.35 0.394 1.35 0.797 2.72 0.24 0.835 0.48 1.67 0.727 2.53 0.213 0.737 0.426 1.47 0.646 2.23 0.456 1.95 0.456 1.95 0.456 4.95h2v2h3c0.11-0.594 0.219-1.19 0.332-1.8 0.159-0.829 0.317-1.66 0.48-2.51 0.151-0.801 0.302-1.6 0.457-2.43 2.16-9.63 5.18-19 8.23-28.4 0.319-0.982 0.319-0.982 0.645-1.98 1.14-3.5 2.28-6.99 3.42-10.5 1.23-3.76 2.44-7.53 3.65-11.3 0.974-3.02 1.96-6.03 2.94-9.05 0.472-1.45 0.941-2.9 1.41-4.35 0.652-2.03 1.32-4.06 1.99-6.09 0.376-1.16 0.752-2.32 1.14-3.51 1.83-4.36 3.74-7.37 8.07-9.4 3.73-0.816 7.16-1.01 11-1.02 1.31-0.0168 2.63-0.0335 3.98-0.0508 1.08 0.12 2.16 0.24 3.27 0.363 2 3 2 3 1.64 5.97-0.412 1.75-0.412 1.75-0.832 3.53-0.296 1.26-0.593 2.53-0.898 3.83-0.302 1.21-0.603 2.42-0.914 3.67-0.219 0.902-0.438 1.8-0.664 2.73-2.02 7.82-4.66 15.5-7.26 23.1-0.807 2.37-1.61 4.74-2.41 7.12-10.6 31.3-10.6 31.3-15.6 43.6-1.48 3.68-2.66 7.3-3.59 11.2-1.8 7.23-5.24 17.1-11.5 21.2-2.79 0.197-5.46 0.279-8.25 0.25-0.739 0.00773-1.48 0.0155-2.24 0.0234-5.57-0.0196-11.1-0.255-15.5-3.94-2.39-2.82-3.49-5.45-4.82-8.9-0.378-0.981-0.378-0.981-0.764-1.98-3.2-8.39-6.08-16.9-8.96-25.4-0.298-0.875-0.595-1.75-0.902-2.65-6.19-18.2-12.2-36.5-18-54.8-1.06-3.3-2.14-6.6-3.23-9.88-0.565-1.72-1.13-3.45-1.7-5.17-0.271-0.801-0.543-1.6-0.823-2.43-0.243-0.748-0.486-1.5-0.736-2.27-0.218-0.657-0.437-1.31-0.662-1.99-0.412-2.29-0.163-3.73 0.658-5.9 3.62-1.81 7.88-1.18 11.9-1.19z" fill="#980698"/>
<path transform="translate(1112 769)" d="m0 0c5.59 2.24 9.05 6.62 12.9 11.1 1.6 1.91 1.6 1.91 3.36 3.52 1.29 1.38 1.29 1.38 1.29 3.38 0.578 0.247 1.15 0.495 1.75 0.75 2.58 1.43 4.31 3.03 6.25 5.25v2c0.58 0.264 1.16 0.529 1.76 0.801 7.35 3.93 13.9 11 17.9 18.3 0.312 2.94 0.312 2.94-1.77 5.91-2.72 3.07-5.54 4.64-9.29 6.34-11.4 5.36-23.6 11.7-32.6 20.7-2.26 0.0316-4.51-0.0681-6.77-0.16-2.52-0.00311-2.52-0.00311-5.23 2.16-3.19-4.19-4.5-6.71-4-12h2c-0.485-4.65-0.485-4.65-2-9h-4v-5c-1.75-0.391-3.5-0.763-5.25-1.12-0.975-0.209-1.95-0.418-2.95-0.633-3.1-0.268-4.17 0.242-6.8 1.76h-3v-2c-1.32 0.66-2.64 1.32-4 2-1.17-4.27-0.723-7.66 0-12v-3c0-3 0-3 1.28-4.64 0.59-0.581 1.18-1.16 1.79-1.76 0.65-0.645 1.3-1.29 1.97-1.95 0.688-0.668 1.38-1.34 2.09-2.02 0.998-0.99 0.998-0.99 2.02-2 2.99-2.94 5.99-5.79 9.23-8.45 2.66-2.05 2.66-2.05 4.5-4.55 2.98-3.68 6.52-6.57 10.1-9.62 0.887-0.825 1.77-1.65 2.69-2.5 2.31-1.5 2.31-1.5 4.81-1.5z" fill="#F91B61"/>
<path transform="translate(810 1168)" d="m0 0c2.75 4.19 2.23 8.37 2.11 13.3-0.00129 0.967-0.00258 1.93-0.00391 2.93-0.0901 7.16-0.0901 7.16-2.37 9.45-3.69 0.675-7.37 1.21-11.1 1.68-6.18 0.899-10.9 2.53-15.6 6.86-9.35 13.2-7.46 31.8-7.89 47.3-0.0434 1.48-0.087 2.96-0.131 4.43-0.105 3.56-0.207 7.13-0.307 10.7-8.82 2.09-16.3 3.19-25 0-2.55-2.55-2.24-4.21-2.27-7.69 0.00405-0.795 0.0081-1.59 0.0123-2.41-0.0035-0.838-0.00701-1.68-0.0106-2.54-0.00883-2.78-0.00296-5.56 0.00378-8.34-0.00135-1.93-0.00329-3.86-0.0058-5.79-0.00295-4.05 0.00135-8.11 0.0107-12.2 0.0114-5.19 0.00486-10.4-0.00714-15.6-0.00725-3.99-0.00492-7.98 2.56e-4 -12 0.00133-1.91-2.93e-4 -3.82-0.00496-5.74-0.0051-2.68 0.0027-5.36 0.0138-8.04-0.00607-1.18-0.00607-1.18-0.0123-2.38 0.0367-4.81 0.604-8.84 2.27-13.4 3.27-1.64 6.84-1.31 10.4-1.38 1.16-0.0561 1.16-0.0561 2.35-0.113 2.27-0.0352 2.27-0.0352 6.21 0.488 3.37 3.8 3.29 7.05 3 12 3.13 1.06 5.72 1.56 9 1 2.35-2.3 4.08-4.8 5.98-7.47 5.13-6.41 15.9-9.59 23.3-5.16z" fill="#980698"/>
<path transform="translate(894,365)" d="m0 0c18.6 7.8 31.1 22.7 39.1 40.9 1.64 4.08 2.78 8.29 3.92 12.5 1.84 6.71 4.47 13 7.26 19.4 0.332 0.757 0.664 1.51 1.01 2.29 0.298 0.667 0.596 1.33 0.903 2.02 0.779 1.96 1.31 3.88 1.77 5.93-1.98-0.495-1.98-0.495-4-1-0.33-1.32-0.66-2.64-1-4-1.81-0.0269-3.62-0.0463-5.44-0.0625-1.01-0.0116-2.02-0.0232-3.06-0.0352-2.44-0.188-2.44-0.188-3.5 1.1 1.65 0.33 3.3 0.66 5 1 0.0606 0.638 0.121 1.28 0.184 1.93 0.0838 0.826 0.168 1.65 0.254 2.5 0.0812 0.824 0.162 1.65 0.246 2.5 0.106 2.05 0.106 2.05 1.32 3.07 0.141 2.67 0.0425 5.32 0 8l-4-2c0.495 4.45 0.495 4.45 1 9h2 3v3h-2v2c-6.75-0.875-6.75-0.875-9-2 0.33-0.66 0.66-1.32 1-2 0.66 0.33 1.32 0.66 2 1v-2c-0.928 0.0619-1.86 0.124-2.81 0.188-3.19-0.188-3.19-0.188-4.75-1.56-0.474-0.536-0.949-1.07-1.44-1.62-0.825-0.289-1.65-0.577-2.5-0.875-3.18-1.43-3.82-3.15-5.5-6.12-0.99-0.33-1.98-0.66-3-1-1.61-1.96-1.61-1.96-3.19-4.38-0.795-1.19-0.795-1.19-1.61-2.4-1.21-2.23-1.21-2.23-1.21-5.23 0.66-0.33 1.32-0.66 2-1v-3h-2v-2c-1.65-0.33-3.3-0.66-5-1 0.33-1.98 0.66-3.96 1-6h-3c-0.33-0.99-0.66-1.98-1-3h-2c-0.549-2.09-1.03-4.16-1.39-6.29-0.138-0.771-0.276-1.54-0.418-2.34-0.13-0.776-0.26-1.55-0.395-2.35-0.618-2.19-0.618-2.19-2.74-3.17-0.677-0.281-1.35-0.562-2.05-0.852-0.66-0.66-1.32-1.32-2-2v-4c-1.98-0.33-3.96-0.66-6-1 0.99-0.495 0.99-0.495 2-1v-2h-2v-2h2c0.33-0.66 0.66-1.32 1-2 0.99 0.66 1.98 1.32 3 2v-2c-2.99-1.66-5.65-2.36-9-3-5.45-1.42-5.45-1.42-7.88-4-1.12-2-1.12-2-1.12-4h-2v-3c0.99-0.33 1.98-0.66 3-1 0.33 1.65 0.66 3.3 1 5h3v-3-3h-2c-0.33-1.98-0.66-3.96-1-6h3c0.33-0.66 0.66-1.32 1-2l2 1c2.1-0.399 2.1-0.399 4-1 0.33 1.65 0.66 3.3 1 5 3.96 0.33 7.92 0.66 12 1v2c0.866 0.268 1.73 0.536 2.62 0.812 3.32 1.17 6.33 2.42 9.38 4.19 0.495 1.49 0.495 1.49 1 3 1.78 0.97 3.56 1.94 5.34 2.89 2.42 1.62 3.01 3.32 3.66 6.11v3c1.65 0.33 3.3 0.66 5 1v2c1.65 0.33 3.3 0.66 5 1-0.239-7.18-2.23-12.1-5.62-18.4-1.38-2.6-1.38-2.6-2.38-5.6-0.763-0.103-1.53-0.206-2.31-0.312-2.69-0.688-2.69-0.688-4-2.12-2.29-2.12-4.71-2.25-7.68-2.91-3.28-1.07-4.94-2.97-7-5.65-0.875-2.75-0.875-2.75-1-5 0.33-0.33 0.66-0.66 1-1-1.32-0.33-2.64-0.66-4-1 0.33-0.99 0.66-1.98 1-3z" fill="#FA1B5B"/>
<path transform="translate(963,492)" d="m0 0c2.5 1.38 2.5 1.38 5 3v2h2c0.33-0.99 0.66-1.98 1-3h2v2h3.25 7.75v2h5c0.0606 0.927 0.121 1.85 0.184 2.81 0.126 1.8 0.126 1.8 0.254 3.63 0.0812 1.19 0.162 2.39 0.246 3.62-0.00703 2.83-0.00703 2.83 1.32 3.94 0.0718 1.52 0.0839 3.04 0.0625 4.56-0.00902 0.826-0.018 1.65-0.0273 2.5-0.0116 0.638-0.0232 1.28-0.0352 1.93h-2v6h6v2l2 1c-0.66 0.99-1.32 1.98-2 3h8v2l2 1-2 2v2c1.05 0.227 2.1 0.454 3.19 0.688 4 1.12 6.04 3.23 8.81 6.31 0.99 0.66 1.98 1.32 3 2v2h2v2h2c0.66 1.32 1.32 2.64 2 4h2v2h-2c-0.591 1.95-0.591 1.95-1 4l1 1v2h2l2-4v2h2v11h3c-0.165-0.495-0.33-0.99-0.5-1.5-0.707-3.53-0.56-6.9-0.5-10.5h2c0.336 1.62 0.668 3.25 1 4.88 0.186 0.905 0.371 1.81 0.562 2.74 0.438 2.38 0.438 2.38 0.438 4.38h2c0.33 1.98 0.66 3.96 1 6-4.45 0.495-4.45 0.495-9 1 2.95 2.37 2.95 2.37 7 2 0.66 0.66 1.32 1.32 2 2-3.15 0.701-5.73 1-9 1 0.501 0.357 1 0.714 1.52 1.08 2.23 2.88 1.55 5.06 1.17 8.61-0.12 1.18-0.24 2.36-0.363 3.57-0.107 0.904-0.214 1.81-0.324 2.74-1.32 0.33-2.64 0.66-4 1v-3h-3c-0.712 5.07-1.11 9.88-1 15h-6v2c-0.99 0.33-1.98 0.66-3 1-0.277-0.699-0.554-1.4-0.84-2.12-0.543-1.37-0.543-1.37-1.1-2.76-0.539-1.36-0.539-1.36-1.09-2.74-0.922-2.34-0.922-2.34-1.97-4.38-0.99-0.33-1.98-0.66-3-1-0.639-0.681-1.28-1.36-1.94-2.06-2.08-2.39-2.08-2.39-6.06-1.94-0.124-0.825-0.247-1.65-0.375-2.5-0.573-3.56-0.573-3.56-1.69-7.19-1.33-5.06-1.11-10.1-0.938-15.3 0.33 1.32 0.66 2.64 1 4h2c0.33 1.65 0.66 3.3 1 5v-3c0.0412-0.825 0.0825-1.65 0.125-2.5 0.0764-2.75 0.0764-2.75-2.12-5.5-0.155-0.99-0.155-0.99-0.312-2-1.01-2.93-3.07-3.52-5.69-5v-2c-0.577-0.268-1.15-0.536-1.75-0.812-4.42-2.33-7.07-4.61-9.25-9.19-0.188-2.81-0.188-2.81 0-5h7c-0.66-0.99-1.32-1.98-2-3v-3c-1.49-0.495-1.49-0.495-3-1l2-1c0.66-0.99 1.32-1.98 2-3 1.32 0.99 2.64 1.98 4 3v-3c-1.49-0.495-1.49-0.495-3-1-0.99-0.66-1.98-1.32-3-2v-3h-2v-2h2v-3h-2v-2h2v-6h-4c0.33 1.65 0.66 3.3 1 5-1.49-0.495-1.49-0.495-3-1-0.33-0.66-0.66-1.32-1-2-2.53-0.656-2.53-0.656-5-1 0.186-0.639 0.371-1.28 0.562-1.94 0.217-1.02 0.217-1.02 0.438-2.06-0.33-0.33-0.66-0.66-1-1v-4h-2c-0.562-1.94-0.562-1.94-1-4 0.33-0.33 0.66-0.66 1-1-0.33-0.66-0.66-1.32-1-2-0.99 0.33-1.98 0.66-3 1v-3h-2v-4c-0.66-0.33-1.32-0.66-2-1v-2h2v-3h-2v-2z" fill="#FA1B5B"/>
<path transform="translate(477,702)" d="m0 0c2 3 2 3 1.69 4.94-0.227 0.681-0.454 1.36-0.688 2.06-0.165 0.701-0.33 1.4-0.5 2.12-0.5 1.88-0.5 1.88-1.5 3.88h-4c-0.0206 1.26-0.0412 2.52-0.0625 3.81-0.0116 0.708-0.0232 1.42-0.0352 2.14 0.015 2.25 0.015 2.25 1.1 5.04 1.32-0.33 2.64-0.66 4-1v5c1.98 0.66 3.96 1.32 6 2v2h2c0.454 0.825 0.908 1.65 1.38 2.5 0.536 0.825 1.07 1.65 1.62 2.5h4c0.66 2.31 1.32 4.62 2 7l-2 1c0.33 0.66 0.66 1.32 1 2 0.04 2 0.0435 4 0 6l2 1h-2v2h2v3h2v2c1.32 0.33 2.64 0.66 4 1v6c0.99 0.495 0.99 0.495 2 1 0.407 2.32 0.744 4.66 1 7h1c0.33 1.98 0.66 3.96 1 6h-2c0.144 0.557 0.289 1.11 0.438 1.69 0.59 2.43 1.09 4.86 1.56 7.31 0.99-0.33 1.98-0.66 3-1 0.8 3.29 1.1 4.71 0 8 0.99 0.495 0.99 0.495 2 1 0.577 0.598 1.15 1.2 1.75 1.81 2.54 2.47 5.27 4.29 8.25 6.19-3.54 1.77-7.4-0.271-11.1-1.31-1.26-0.339-1.26-0.339-2.55-0.686-0.8-0.224-1.6-0.447-2.42-0.678-0.736-0.205-1.47-0.411-2.23-0.622-1.73-0.702-1.73-0.702-2.73-2.7-1.9-0.601-1.9-0.601-4-1-0.99-0.33-1.98-0.66-3-1v-2c-0.563-0.211-1.13-0.423-1.71-0.641-3.06-1.81-4.89-4.3-6.98-7.11-0.437-0.581-0.874-1.16-1.32-1.76-11.7-15.8-21.5-33.1-30.2-50.7-0.574-1.11-0.574-1.11-1.16-2.24-2.69-5.61-3.02-10.4-2.59-16.6h3c0.0928-1.08 0.0928-1.08 0.188-2.19 2.03-7.04 10-11 15.8-14.8 3.04-1.52 5.65-1.24 9-1z" fill="#F91B62"/>
<path transform="translate(837 1168)" d="m0 0c0.971-0.0206 1.94-0.0412 2.94-0.0625 0.927-0.00516 1.85-0.0103 2.81-0.0156 0.85-0.00935 1.7-0.0187 2.58-0.0283 0.695 0.118 1.39 0.235 2.11 0.356 2.6 3.9 2.31 7.22 2.33 11.8 0.0117 0.895 0.0233 1.79 0.0353 2.71 0.036 2.96 0.0579 5.92 0.0792 8.88 0.0212 2.05 0.0432 4.11 0.0659 6.16 0.0454 4.3 0.0842 8.61 0.118 12.9 0.0436 5.53 0.1 11.1 0.162 16.6 0.0461 4.24 0.0869 8.48 0.126 12.7 0.0191 2.04 0.0395 4.08 0.0611 6.12 0.0291 2.84 0.0514 5.69 0.0718 8.53 0.0098 0.848 0.0196 1.7 0.0297 2.57 0.0313 5.83 0.0313 5.83-1.08 8.05-7.41 2.68-15.4 3.08-22.8 0.48-0.795-0.276-1.59-0.551-2.41-0.835-0.896-0.319-0.896-0.319-1.81-0.645-0.0231-12.1-0.0409-24.2-0.0518-36.3-0.00523-5.61-0.0123-11.2-0.0236-16.8-0.0108-5.41-0.0168-10.8-0.0194-16.2-0.00185-2.07-0.00547-4.14-0.0109-6.21-0.00722-2.89-0.00826-5.78-0.0078-8.67-0.0036-0.862-0.00719-1.72-0.0109-2.61 0.0104-5.92 0.0104-5.92 1.12-8.15 4.47-1.49 8.88-1.23 13.6-1.25z" fill="#970597"/>
<path transform="translate(715 1168)" d="m0 0c1.28-0.0309 1.28-0.0309 2.59-0.0625 1.25-0.00773 1.25-0.00773 2.52-0.0156 0.757-0.00935 1.51-0.0187 2.29-0.0283 3.22 0.503 4.78 1.22 7.28 3.36 0.455 3.17 0.576 5.8 0.476 8.97-0.00902 0.917-0.018 1.83-0.0273 2.78-0.0358 3.04-0.107 6.07-0.179 9.11-0.0318 2.1-0.0613 4.21-0.0887 6.31-0.0782 5.54-0.187 11.1-0.301 16.6-0.112 5.65-0.195 11.3-0.28 17-0.172 11.1-0.376 22.2-0.6 33.3-1.76 0.336-3.53 0.667-5.29 0.997-0.983 0.185-1.97 0.37-2.98 0.561-2.97 0.482-5.61 0.538-8.6 0.192-0.864-0.0877-1.73-0.175-2.62-0.266-2.69-0.519-4.98-1.44-7.51-2.48-0.0465-10.9-0.0819-21.8-0.104-32.7-0.0104-5.07-0.0245-10.1-0.0473-15.2-0.0218-4.9-0.0337-9.79-0.0389-14.7-0.00368-1.86-0.0109-3.72-0.0217-5.59-0.105-18.8-0.105-18.8 2.21-26.8 3.5-1.75 7.46-1.23 11.3-1.25z" fill="#980698"/>
<path transform="translate(990 1168)" d="m0 0c1.31-0.0258 2.61-0.0516 3.96-0.0781 1.6 0.162 1.6 0.162 3.23 0.328 2.64 3.96 2.27 7.37 2.23 12 2.92e-4 0.917 5.84e-4 1.83 8.85e-4 2.78-0.00139 3.04-0.017 6.07-0.0326 9.11-0.00373 2.1-0.00658 4.21-0.00858 6.31-0.00764 5.54-0.0273 11.1-0.0494 16.6-0.0204 5.65-0.0296 11.3-0.0397 17-0.0215 11.1-0.0556 22.2-0.0977 33.3-1.76 0.336-3.53 0.667-5.29 0.997-0.983 0.185-1.97 0.37-2.98 0.561-2.97 0.482-5.61 0.538-8.6 0.192-0.864-0.0877-1.73-0.175-2.62-0.266-2.69-0.519-4.98-1.44-7.51-2.48-0.0694-11.9-0.123-23.9-0.155-35.8-0.0157-5.55-0.0369-11.1-0.0709-16.6-0.0325-5.35-0.0505-10.7-0.0583-16-0.00555-2.04-0.0164-4.09-0.0326-6.13-0.0217-2.86-0.0248-5.71-0.0234-8.57-0.0108-0.849-0.0216-1.7-0.0327-2.57 0.0306-5.77 0.0306-5.77 1.7-7.91 4.28-3.32 11.3-2.49 16.5-2.55z" fill="#980698"/>
<path transform="translate(749,676)" d="m0 0h2c0.17 0.617 0.34 1.23 0.516 1.87 1.28 4.48 2.66 8.64 4.73 12.8 1.91 4.24 2.29 6.77 0.75 11.3-5.46 8.62-12.1 15-22.2 17.6-3.45 0.538-6.77 0.562-10.3 0.555-1.29 0.00258-2.58 0.00516-3.91 0.00781-3.04-0.112-5.63-0.513-8.59-1.13-2.1-0.099-4.21-0.181-6.31-0.25-6.33-0.41-11.7-1.79-17.6-3.81-4.58-1.54-9.03-2.59-13.8-3.44-5.96-1.09-11-2.94-16.5-5.43-3.95-1.55-7.52-1.86-11.7-2.07v-1h5c0.33-0.66 0.66-1.32 1-2 2.05-0.595 4.09-0.955 6.19-1.34 0.598-0.218 1.2-0.436 1.81-0.66 0.33-0.99 0.66-1.98 1-3 2.83-0.508 5.67-1.01 8.5-1.5 0.791-0.143 1.58-0.286 2.4-0.434 14.1-2.42 14.1-2.42 19.1 0.934v2c0.969-0.0412 1.94-0.0825 2.94-0.125 5.02 0 10.5 0.689 14.9 3.19 2.87 1.27 5.25 1.13 8.37 1.06 1.62-0.0271 1.62-0.0271 3.27-0.0547 1.23-0.0348 1.23-0.0348 2.48-0.0703v2c0.66 0.33 1.32 0.66 2 1-0.33 0.66-0.66 1.32-1 2h2c0.0825-0.701 0.165-1.4 0.25-2.12 0.93-3.57 2.52-5.97 4.75-8.88h2c-0.495-1.98-0.495-1.98-1-4 0.99-0.66 1.98-1.32 3-2 0.33-0.99 0.66-1.98 1-3 3.06-1.19 3.06-1.19 6-2v-2c1.65 0.33 3.3 0.66 5 1-0.0412-0.784-0.0825-1.57-0.125-2.38 0.125-2.62 0.125-2.62 2.12-4.62z" fill="#FA1B61"/>
<path transform="translate(996,795)" d="m0 0c15 15 15 15 17.5 17.6 3.1 3.05 6.39 5.86 9.7 8.68 0.592 0.584 1.18 1.17 1.79 1.77v2c0.585 0.247 1.17 0.495 1.77 0.75 2.55 1.43 3.98 3.01 5.85 5.25 1.75 2.08 3.45 4.08 5.38 6-0.688 2.44-0.688 2.44-2 5-2.62 0.812-2.62 0.812-5 1v-3c-1.48 0.495-1.48 0.495-3 1-1.67-0.495-1.67-0.495-3.38-1-3.63-1-5.09-0.807-8.62 0-0.66-0.66-1.32-1.32-2-2 0.33-0.33 0.66-0.66 1-1l-2-1v2h-2v-2h-3v-2c0.66-0.33 1.32-0.66 2-1-1.65-0.66-3.3-1.32-5-2l-1 2c-3.07 1.53-5.7 0.55-9 0v2c-0.615 0.0606-1.23 0.121-1.86 0.184-0.808 0.0838-1.62 0.168-2.45 0.254-0.801 0.0812-1.6 0.162-2.43 0.246-2.42 0.269-2.42 0.269-5.26 1.32 0.33 1.32 0.66 2.64 1 4-1.29 0.363-2.58 0.715-3.88 1.06-0.719 0.197-1.44 0.394-2.18 0.598-1.95 0.34-1.95 0.34-3.95-0.66v-2h-6v-2h-2v-6c-0.742-0.0412-1.49-0.0825-2.25-0.125-3.88-1.23-4.83-3.4-6.75-6.88v-2c-0.33-0.99-0.66-1.98-1-3 0.33-0.66 0.66-1.32 1-2-0.892-2.12-0.892-2.12-2-4 1.22-0.0374 2.44-0.0748 3.69-0.113 1.62-0.0657 3.25-0.132 4.87-0.199 0.8-0.0226 1.6-0.0451 2.42-0.0684 7.85-0.353 13.2-2.16 18.7-8.06 0.726-0.762 1.45-1.52 2.2-2.31 0.697-0.744 1.39-1.49 2.11-2.25 2.29-2.37 4.24-4.16 7-6z" fill="#FA1B61"/>
<path transform="translate(921,1191)" d="m0 0c5.49 3.72 8.3 10.5 9.56 16.8 1.62 11.7 1.05 22.5-5.99 32.3-2.96 3.55-5.54 4.62-9.95 5.76-4.92 0.17-8.5-1.2-12.4-4.25-1.62-2.11-2.95-4.3-4.25-6.62-0.344-0.581-0.688-1.16-1.04-1.76-3.8-8.89-2.27-21.1 0.043-30.2 1.98-4.55 4.56-8.56 9-11 4.93-1.48 9.93-1.89 15-1z" fill="#FBFEFF"/>
<path transform="translate(572,858)" d="m0 0c1.65 0.33 3.3 0.66 5 1v2c3.26 1.63 6.67 1.96 10.3 2.4 3.67 0.592 6.88 1.52 10.4 2.75 1.24 0.43 2.47 0.86 3.75 1.3 1.29 0.455 2.58 0.91 3.86 1.37 1.27 0.444 2.54 0.887 3.82 1.33 7.33 2.56 14.7 5.14 21.9 7.86 0.885 0.305 1.77 0.611 2.68 0.925 2.32 1.07 2.32 1.07 4.32 4.07 1.15 1.3 1.15 1.3 4 2v1c2.31 0.66 4.62 1.32 7 2v2l2.19 0.875c2.81 1.12 2.81 1.12 5 2.25 4.24 1.32 8.41 1.03 12.8 0.875-1.49-0.99-1.49-0.99-3-2h5c0.495-0.99 0.495-0.99 1-2v2h2v-2h2c0.99-2.48 0.99-2.48 2-5 2.65 3.98 2.97 7.64 3.69 12.3 0.214 1.26 0.214 1.26 0.432 2.55 0.731 4.65 1.01 8.49-0.119 13.1-8.01-0.996-15.8-2.54-23.7-4.38-0.866-0.197-1.73-0.394-2.62-0.596-6.16-1.47-11.9-3.57-17.7-6.03-1.42-0.571-2.84-1.14-4.26-1.7-3.58-1.43-7.16-2.86-10.7-4.3 0.66-0.99 1.32-1.98 2-3-0.949-0.247-1.9-0.495-2.88-0.75-3.12-1.25-3.12-1.25-4.5-3.38-0.206-0.619-0.413-1.24-0.625-1.88h-2v-3c-0.99 0.33-1.98 0.66-3 1-0.99-0.33-1.98-0.66-3-1v-4c-0.66-0.0825-1.32-0.165-2-0.25-3.36-0.84-6.03-2.24-9.08-3.84-2.27-1.08-4.46-1.45-6.92-1.91-1.67-1-3.33-2-5-3-1.66-0.359-3.33-0.689-5-1-1.38-0.43-2.76-0.891-4.12-1.38-0.663-0.235-1.33-0.469-2.01-0.711-2.15-1.05-3.41-2-4.87-3.91v-4h2v-2z" fill="#970597"/>
<path transform="translate(753,591)" d="m0 0c6.69 0.54 12.6 1.89 19 4v4c-0.639 0.103-1.28 0.206-1.94 0.312-0.681 0.227-1.36 0.454-2.06 0.688-0.33 0.99-0.66 1.98-1 3-1.64 1.06-1.64 1.06-3.69 2-0.717 0.34-1.43 0.681-2.17 1.03-1.85 0.838-3.71 1.66-5.58 2.47-2.65 1.22-2.65 1.22-3.41 3.36-0.369 2.21-0.369 2.21 1.04 4.04 0.598 0.633 1.2 1.27 1.81 1.92 0.642 0.69 1.28 1.38 1.95 2.09 2.53 2.58 5.07 5.14 7.67 7.65 3.04 3.18 2.46 6.23 2.38 10.4-3.88 1.83-6.76 2-11 2-0.99 0.66-1.98 1.32-3 2 1.12 2.51 2.24 4.28 4.06 6.38 2.68 3.63 3.17 6.32 2.72 10.8-0.986 5.65-2.86 8.7-6.78 12.8-0.495 0.99-0.495 0.99-1 2-1.32-0.33-2.64-0.66-4-1 0.33-3.63 0.66-7.26 1-11-0.99-0.33-1.98-0.66-3-1 0.33-1.32 0.66-2.64 1-4 0.66 0.33 1.32 0.66 2 1v-2h-3c0.33-0.99 0.66-1.98 1-3h2c1.24-3.58 0.749-6.34 0-10-2.31-0.66-4.62-1.32-7-2v-3h2v-2.81-6.19c-0.156-2.23-0.323-4.46-0.5-6.69-0.0928-1.18-0.186-2.36-0.281-3.57-0.0722-0.904-0.144-1.81-0.219-2.74 0.66-0.33 1.32-0.66 2-1v-3h3c-0.33-0.66-0.66-1.32-1-2 0.234-2.31 0.234-2.31 0.75-5 0.24-1.33 0.24-1.33 0.484-2.69 0.766-2.31 0.766-2.31 3.77-4.31 1.2-2.55 1.2-2.55 2-5-0.33-0.33-0.66-0.66-1-1v-1z" fill="#FA1C62"/>
<path transform="translate(930,855)" d="m0 0c2.49 1.2 4.68 2.45 7 4 2.06 0.241 2.06 0.241 4.19 0.125 1.26-0.0412 2.52-0.0825 3.81-0.125 0.33-0.66 0.66-1.32 1-2 1.65 0.66 3.3 1.32 5 2v2c0.619 0.144 1.24 0.289 1.88 0.438 2.12 0.562 2.12 0.562 4.12 1.56 0.731 2.31 1.4 4.65 2 7h2c8.75 16.9 8.75 16.9 8 24h2c0.0909 0.996 0.0909 0.996 0.184 2.01 0.615 6.54 0.615 6.54 1.82 13-0.99-0.33-1.98-0.66-3-1-0.371-0.969-0.742-1.94-1.12-2.94-4.1-10.3-15.6-18.9-23.3-26.6-1.91-1.9-3.81-3.81-5.71-5.72-1.22-1.22-2.44-2.44-3.67-3.66-0.845-0.848-0.845-0.848-1.71-1.71-2.21-2.19-4.37-4.26-6.88-6.11-0.798-0.617-0.798-0.617-1.61-1.25v-2c2-1.62 2-1.62 4-3z" fill="#FA1B61"/>
<path transform="translate(1024,652)" d="m0 0c0.66 0.33 1.32 0.66 2 1 0.33 0.99 0.66 1.98 1 3l4-2c0.66 1.32 1.32 2.64 2 4 0.33-0.99 0.66-1.98 1-3 0.699 0.0348 1.4 0.0696 2.12 0.105 0.91 0.0271 1.82 0.0541 2.76 0.082 0.905 0.0348 1.81 0.0696 2.74 0.105 0.786-0.0967 1.57-0.193 2.38-0.293 0.66-0.99 1.32-1.98 2-3h2c1.08 4.33 0.817 7.32-0.41 11.6-0.706 2.9-1 5.77-1.34 8.74-1.14 8.51-3.85 16.4-6.55 24.5-1.4 4.34-2.57 8.74-3.7 13.2-2.16-3.57-2.43-6.82-2.81-10.9-1.45-13.3-4.58-26.5-9.54-39-0.9-2.93-0.584-5.23 0.352-8.11z" fill="#FA1B5B"/>
<path transform="translate(845 1133)" d="m0 0c2.29 1.29 2.29 1.29 3.59 3.47 0.839 3.35 0.968 6.35 0.953 9.81 0.00516 1.2 0.0103 2.39 0.0156 3.62-0.257 3.26-0.759 5.49-2.27 8.38-5.03 2.52-13 1.66-18.4 0.469-2.49-0.972-4.27-2.08-5.96-4.16-1.67-6.19-2.43-11.4 0.375-17.3 5.98-6.05 13.8-6.37 21.7-4.29z" fill="#980698"/>
<path transform="translate(718 1132)" d="m0 0c0.802-0.011 1.6-0.0219 2.43-0.0332 3.74 0.0466 5.89 0.179 9.04 2.31 3.41 5.33 1.75 12.6 0.465 18.5-0.33 1.26-0.66 2.52-1 3.81-6.87 2.5-14.8 3.43-21.8 1.05-2.2-1.05-2.2-1.05-3.2-2.05-0.208-2.93-0.325-5.81-0.375-8.75-0.0374-0.812-0.0748-1.62-0.113-2.46-0.0609-4.15 0.151-6.26 2.45-9.83 4.14-2.66 7.28-2.66 12.1-2.52z" fill="#980698"/>
<path transform="translate(997 1133)" d="m0 0c3.77 7.19 2.33 15.9 1.38 23.6-7.3 1.93-14.9 3.94-21.9 0.25-4.29-3.15-4.29-3.15-5.06-6.25-0.612-6.12 0.0243-11.1 4-16 5.77-4.06 15.4-4.88 21.6-1.62z" fill="#980698"/>
<path transform="translate(634,891)" d="m0 0c5.88 0.875 5.88 0.875 7 2h2.94c3.06 0 3.06 0 5.06 1 1.18 0.33 2.35 0.66 3.56 1 3.44 1 3.44 1 4.44 2 2.57 1.03 5.16 2 7.75 2.96 2.25 1.04 2.25 1.04 3.25 3.04 0.66 0.33 1.32 0.66 2 1 0.144 0.66 0.289 1.32 0.438 2 0.186 0.66 0.371 1.32 0.562 2 0.99 0.33 1.98 0.66 3 1-5.15 0.186-9.46-0.426-14.4-1.75-1.39-0.365-2.79-0.729-4.18-1.09-0.714-0.189-1.43-0.379-2.16-0.574-3.73-0.98-7.47-1.9-11.2-2.83-1.35-0.338-2.71-0.677-4.06-1.02-0.969-0.242-1.94-0.485-2.94-0.734v-2c-1.32-0.66-2.64-1.32-4-2l3-6z" fill="#7E0587"/>
<path transform="translate(762,579)" d="m0 0c3.83-0.46 7.41-0.852 10.9 1.02 3.33 2.95 4.46 5.44 4.98 9.86 0.068 1.37 0.119 2.75 0.125 4.12-2.12 1.69-2.12 1.69-5 3-0.815-0.413-1.63-0.825-2.47-1.25-4.8-2.38-9.69-3.32-14.9-4.44-1.02-0.225-2.04-0.45-3.1-0.682-2.51-0.551-5.02-1.09-7.53-1.63v-2c2.97 0.495 2.97 0.495 6 1v-4h4c0.33-0.66 0.66-1.32 1-2l1 1c2.04-0.176 2.04-0.176 4-1 0.33-0.99 0.66-1.98 1-3z" fill="#970597"/>
<path transform="translate(956,461)" d="m0 0c0.99 0.866 1.98 1.73 3 2.62 12.2 10.4 23.2 15.8 39.4 15.4 6.63-0.13 13 0.0732 19.6 0.938v2c-1.19 0.0561-1.19 0.0561-2.41 0.113-1.59 0.0986-1.59 0.0986-3.21 0.199-1.57 0.087-1.57 0.087-3.16 0.176-3.28 0.348-3.28 0.348-6.15 2.04-3.72 1.78-6.34 1.77-10.4 1.66-1.25-0.0271-2.49-0.0541-3.77-0.082-0.941-0.0348-1.88-0.0696-2.85-0.105-0.33-0.99-0.66-1.98-1-3-0.846 0.103-1.69 0.206-2.56 0.312-4.09-0.371-5.52-1.61-8.63-4.08-2-1.5-2-1.5-5.62-2.29-3.19-0.938-3.19-0.938-4.62-3.06-0.186-0.619-0.371-1.24-0.562-1.88-0.99 0.33-1.98 0.66-3 1-0.103-0.577-0.206-1.15-0.312-1.75-0.789-2.58-2.05-4.13-3.69-6.25-0.33-0.99-0.66-1.98-1-3 0.33-0.33 0.66-0.66 1-1z" fill="#FA1B5B"/>
<path transform="translate(494,801)" d="m0 0c3.22 1.05 6.4 2.15 9.56 3.38 4.77 1.83 9.67 3.18 14.6 4.56 2.75 1.02 4.04 1.82 5.86 4.06-0.66 1.32-1.32 2.64-2 4h2c-1.25 3.75-2.57 4.24-6 6h-2l-2-2c-2.07-0.643-2.07-0.643-4-1v-2c-0.598-0.269-1.2-0.538-1.81-0.814-2.2-1.19-3.52-2.33-5.2-4.15-0.529-0.571-1.06-1.14-1.6-1.73-0.539-0.594-1.08-1.19-1.63-1.8-0.554-0.594-1.11-1.19-1.68-1.8-4.07-4.44-4.07-4.44-4.07-6.7z" fill="#970597"/>
<path transform="translate(885,363)" d="m0 0c0.495 1.49 0.495 1.49 1 3-3.31 2.21-4.34 2.22-8.19 2.12-0.901-0.018-1.8-0.0361-2.73-0.0547-0.687-0.0232-1.37-0.0464-2.08-0.0703-0.103 0.743-0.206 1.49-0.312 2.25-0.775 3.1-1.41 4.51-3.69 6.75-3.14 0.391-3.14 0.391-6.69 0.25-1.18-0.0361-2.36-0.0722-3.57-0.109-0.904-0.0464-1.81-0.0928-2.74-0.141 0.33-0.66 0.66-1.32 1-2-4.71 0.479-8.67 0.968-13 3 1-3 1-3 4.29-4.9 1.44-0.693 2.88-1.37 4.34-2.04 0.761-0.352 1.52-0.704 2.31-1.07 9.47-4.24 19.6-7.85 30.1-7z" fill="#FA1B5B"/>
<path transform="translate(732,1186)" d="m0 0c0.145 5.4 0.287 10.8 0.427 16.2 0.0478 1.83 0.0962 3.66 0.146 5.49 0.406 15.1 0.806 30.2-0.0728 45.3-0.0477 0.882-0.0954 1.76-0.145 2.67-0.115 2.11-0.234 4.22-0.355 6.33h-1c-0.217-1.7-0.217-1.7-0.438-3.44-0.174-3.37-0.174-3.37-1.56-4.56-0.0942-2.09-0.117-4.18-0.114-6.26-1.46e-4 -0.654-2.92e-4 -1.31-4.43e-4 -1.98 6.99e-4 -2.17 0.00849-4.34 0.0163-6.51 0.00186-1.5 0.00329-3 0.00429-4.5 0.00383-3.96 0.0137-7.91 0.0247-11.9 0.0102-4.04 0.0148-8.07 0.0198-12.1 0.0107-7.92 0.0278-15.8 0.0488-23.8 2-1 2-1 3-1z" fill="#FCFDFF"/>
<path transform="translate(1031,680)" d="m0 0c3.3 0.33 6.6 0.66 10 1 0.67 10.6-1.71 19.1-5 29-2.24-3.66-2.61-7.44-3.06-11.6-0.0823-0.708-0.165-1.42-0.25-2.14-0.621-5.4-1.18-10.8-1.69-16.2z" fill="#FA1B61"/>
<path transform="translate(1013,748)" d="m0 0c2.48 0.99 2.48 0.99 5 2-4.18 8.7-8.61 17-14 25-2.4-2.4-2.87-4.37-3.23-7.71 0.622-6.19 5.95-11.2 10.2-15.3 1.24-2.13 1.24-2.13 2-4z" fill="#FA1C62"/>
<path transform="translate(618,772)" d="m0 0c2.14 2.72 3.81 5.42 5.38 8.5 2.07 3.79 4.05 6 7.62 8.5 1.67 1.67 3.33 3.33 5 5 7.49 7.46 16.6 12.4 26 17v2c-10.9-3-19.3-9-28-16-0.745-0.522-1.49-1.04-2.26-1.58-0.862-0.702-0.862-0.702-1.74-1.42v-2c-0.742-0.227-1.49-0.454-2.25-0.688-3.33-1.59-4.72-3.26-6.75-6.31-0.543-1.87-0.543-1.87-1-4-0.265-1.17-0.265-1.17-0.535-2.36-0.174-0.789-0.348-1.58-0.527-2.39-0.177-0.799-0.353-1.6-0.535-2.42-0.133-0.603-0.266-1.21-0.402-1.83z" fill="#FA1B61"/>
<path transform="translate(581,604)" d="m0 0c1.32 0.66 2.64 1.32 4 2v7h-2v9c0.99-1.32 1.98-2.64 3-4 1 1 1 1 1.25 4.25-0.26 3.9-0.99 5.64-3.25 8.75-0.66-0.33-1.32-0.66-2-1-0.99 0.66-1.98 1.32-3 2-0.66-0.33-1.32-0.66-2-1-1.34-4.1-0.738-7.13 0.312-11.2 0.281-1.13 0.562-2.27 0.852-3.43 0.276-1.09 0.552-2.19 0.836-3.32 0.403-1.77 0.8-3.54 1.19-5.31 0.268-1.22 0.536-2.43 0.812-3.69z" fill="#FA1B61"/>
<path transform="translate(972,910)" d="m0 0v2c2.97 0.495 2.97 0.495 6 1-0.165 0.681-0.33 1.36-0.5 2.06-0.571 3.35-0.567 6.54-0.5 9.94-1.65 0.33-3.3 0.66-5 1-1.15-1.24-2.3-2.49-3.44-3.75-0.638-0.696-1.28-1.39-1.93-2.11-1.62-2.13-2.21-3.53-2.63-6.14 5.75-4 5.75-4 8-4z" fill="#FA1B61"/>
<path transform="translate(619,827)" d="m0 0c5.32 0.483 9.87 1.51 14.9 3.31 2.3 0.813 2.3 0.813 5.55 1.19 1.27 0.247 1.27 0.247 2.56 0.5 0.99 1.49 0.99 1.49 2 3 2.05 1.19 2.05 1.19 4 2-11 1.78-20.3-3.47-30-8 0.33-0.66 0.66-1.32 1-2z" fill="#FA1B60"/>
<path transform="translate(912,969)" d="m0 0c1.92 3.85 1.48 8.57 1.72 12.8 0.0755 3.08 0.0755 3.08 1.28 5.19-2.99-1.36-5.29-2.95-7.75-5.12-0.614-0.539-1.23-1.08-1.86-1.63-0.459-0.41-0.918-0.82-1.39-1.24 1.31-3.94 2.88-6.27 6-9 0.66-0.33 1.32-0.66 2-1z" fill="#970597"/>
<path transform="translate(453,713)" d="m0 0 1 2c-0.938 2.62-0.938 2.62-2 5h-3l1 2c0.04 2 0.0435 4 0 6h-2c-0.506-1.44-1-2.87-1.5-4.31-0.278-0.801-0.557-1.6-0.844-2.43-0.656-2.26-0.656-2.26-0.656-5.26 2.65-1.08 5.28-2.09 8-3z" fill="#9C0795"/>
<path transform="translate(784,1175)" d="m0 0c0.66 0.33 1.32 0.66 2 1-1.61 2.27-2.95 4.16-5 6-4.15 0.664-5.47 0.35-9-2 0.33-1.32 0.66-2.64 1-4 0.33 0.66 0.66 1.32 1 2 5.59-0.199 5.59-0.199 10-3z" fill="#FCFAFD"/>
<path transform="translate(600,552)" d="m0 0c0.66 0.33 1.32 0.66 2 1-0.66 1.32-1.32 2.64-2 4h-2c-0.33 2.97-0.66 5.94-1 9-0.99 0.33-1.98 0.66-3 1-0.222-1.62-0.427-3.25-0.625-4.88-0.116-0.905-0.232-1.81-0.352-2.74-0.00773-0.786-0.0155-1.57-0.0234-2.38l2-2c0.33 0.66 0.66 1.32 1 2 1.32-1.65 2.64-3.3 4-5z" fill="#FA1B61"/>
<path transform="translate(928,425)" d="m0 0c2.48 0.495 2.48 0.495 5 1v7h2v5h-3c-0.33-2.31-0.66-4.62-1-7-0.99-0.33-1.98-0.66-3-1v-5z" fill="#FA1C62"/>
<path transform="translate(1595,1566)" d="m0 0h3v14c-0.99 0.33-1.98 0.66-3 1v-15z" fill="#FCFDFF"/>
<path transform="translate(707,875)" d="m0 0h5v4h5v1c-1.58 0.0815-3.17 0.139-4.75 0.188-1.32 0.0522-1.32 0.0522-2.67 0.105-3.02-0.344-4.33-1.3-6.58-3.29h4v-2z" fill="#FB1B5B"/>
<path transform="translate(862,885)" d="m0 0c-0.33 1.32-0.66 2.64-1 4-2.64 0.66-5.28 1.32-8 2-0.66-0.99-1.32-1.98-2-3 1.27-0.506 2.54-1 3.81-1.5 1.06-0.418 1.06-0.418 2.14-0.844 2.04-0.656 2.04-0.656 5.04-0.656z" fill="#FA1B5B"/>
<path transform="translate(1035,588)" d="m0 0c1.48 0.99 1.48 0.99 3 2-0.608 4.34-1.26 8.68-2 13-2-2-2-2-2.19-5.25 0.167-3.34 0.548-6.47 1.19-9.75z" fill="#FA1B5B"/>
<path transform="translate(973,1033)" d="m0 0c0.66 0.66 1.32 1.32 2 2-1.69 2.06-1.69 2.06-4 4-3.07-0.0749-4.49-0.557-6.81-2.56-0.392-0.474-0.784-0.949-1.19-1.44 0.908 0.0412 1.82 0.0825 2.75 0.125 3.13-0.12 4.64-0.516 7.25-2.12z" fill="#980698"/>
<path transform="translate(896,1172)" d="m0 0c7 0 7 0 10 1-3.32 3.94-3.32 3.94-6.75 4.25-0.742-0.0825-1.49-0.165-2.25-0.25-0.33-1.65-0.66-3.3-1-5z" fill="#FCFDFF"/>
<path transform="translate(1032,830)" d="m0 0h2v2h2v2h8c-1.31 2-1.31 2-3 4h-3v-2c-0.619-0.247-1.24-0.495-1.88-0.75-2.48-1.46-3.08-2.63-4.12-5.25z" fill="#FCFDFF"/>
<path transform="translate(692,698)" d="m0 0c1.96 0.0859 1.96 0.0859 4.38 0.375 1.19 0.135 1.19 0.135 2.4 0.273 2.23 0.352 2.23 0.352 5.23 1.35v2c-1.42-0.115-2.83-0.243-4.25-0.375-0.789-0.0696-1.58-0.139-2.39-0.211-2.45-0.429-4.21-1.2-6.36-2.41l1-1z" fill="#FB1B5B"/>
<path transform="translate(1019,596)" d="m0 0c1.46-0.027 2.92-0.0464 4.38-0.0625 0.812-0.0116 1.62-0.0232 2.46-0.0352 2.16 0.0977 2.16 0.0977 4.16 1.1v2c-1.46 0.027-2.92 0.0464-4.38 0.0625-0.812 0.0116-1.62 0.0232-2.46 0.0352-2.16-0.0977-2.16-0.0977-4.16-1.1v-2z" fill="#FA1C62"/>
<path transform="translate(817,383)" d="m0 0v11c-0.99-0.66-1.98-1.32-3-2-0.408-2.71-0.133-5.24 0-8 2-1 2-1 3-1z" fill="#920594"/>
</svg>
